<svg width="264" height="265" viewBox="0 0 264 265" fill="none" xmlns="http://www.w3.org/2000/svg">
<path d="M264 52.5105C264 78.3598 246.602 100.003 222.158 105.324C208.175 108.38 195.019 106.151 182.725 98.7445C182.366 98.5287 182.078 98.2411 181.719 98.8164C176.866 106.043 172.48 113.521 169.461 121.718C168.311 124.845 167.412 128.045 167.16 131.389C166.909 134.588 167.664 137.644 168.598 140.664C171.007 148.466 174.925 155.548 179.238 162.379C179.993 163.601 180.82 164.788 181.575 165.974C181.863 166.478 182.114 166.55 182.653 166.226C188.692 162.487 195.271 160.042 202.28 159C216.874 156.878 230.282 160.006 242.181 168.707C254.007 177.371 261.088 189.127 263.353 203.616C267.523 230.436 250.664 257.004 223.057 263.476C194.3 270.234 166.118 253.121 158.857 224.504C155.154 209.871 157.599 196.066 165.471 183.231C165.902 182.548 165.866 182.225 165.183 181.793C158.246 177.227 151.092 173.021 143.256 170.073C139.913 168.814 136.462 167.772 132.868 167.592C129.309 167.376 125.966 168.311 122.623 169.426C113.888 172.338 106.016 176.976 98.395 182.045C97.8558 182.404 98.1074 182.62 98.3231 182.98C102.277 189.199 104.865 195.922 105.98 203.22C108.101 216.882 105.44 229.609 97.748 241.114C89.013 254.128 76.7912 262.037 61.2983 264.374C33.1883 268.653 7.59444 250.533 1.41166 224C-5.27437 195.167 12.4113 166.55 41.3121 159.827C55.3672 156.555 68.7033 158.748 81.1407 166.154C81.8237 166.585 82.1472 166.55 82.6145 165.83C87.2876 158.748 91.6011 151.486 94.5487 143.504C95.735 140.305 96.6696 137.069 96.9212 133.654C97.1728 130.454 96.418 127.398 95.4834 124.378C93.0749 116.577 89.1568 109.494 84.8432 102.663C84.1243 101.513 83.3335 100.434 82.6505 99.2837C82.327 98.7804 82.1113 98.6366 81.5361 98.9961C75.2096 102.951 68.3079 105.467 60.9029 106.402C45.6976 108.308 31.8942 104.677 19.924 95.0774C9.24797 86.4849 2.74167 75.2679 0.69273 61.7141C-3.62084 33.5639 14.7118 6.85169 42.9657 1.31511C71.0758 -4.18551 98.4309 13.1433 105.225 40.9699C108.784 55.4945 106.375 69.1921 98.6107 81.919C98.1793 82.6021 98.2872 82.8538 98.9342 83.2852C105.872 87.8511 112.989 92.0215 120.79 94.9336C124.133 96.1919 127.512 97.1985 131.07 97.4142C134.773 97.63 138.296 96.6592 141.746 95.4728C149.655 92.7765 156.88 88.642 163.853 84.1121C164.572 83.6447 165.651 83.2492 165.866 82.6021C166.082 81.955 165.147 81.164 164.716 80.445C158.893 70.4145 156.448 59.593 157.563 48.0524C159.72 26.1938 175.069 8.00215 196.169 2.03415C225.681 -6.27071 255.84 11.6333 262.742 41.5452C263.569 45.4999 264 49.4546 264 52.5105ZM233.446 235.038C233.41 235.002 233.374 234.93 233.338 234.894C233.446 234.75 233.553 234.606 233.661 234.462C238.802 228.926 241.677 222.383 242.288 214.869C242.792 208.685 241.462 202.825 238.442 197.396C235.351 191.824 230.929 187.545 225.25 184.669C224.747 184.418 224.495 184.418 224.351 185.065C223.165 190.242 221.475 195.203 219.426 200.093C218.887 201.387 218.887 201.387 220.002 202.214C224.207 205.342 225.897 209.476 224.711 214.617C223.884 218.212 221.475 220.801 218.636 222.994C215.904 225.115 212.776 225.798 209.397 225.331C208.643 225.223 208.607 225.475 208.571 226.05C208.319 229.142 208.175 232.305 207.564 235.361C206.342 241.257 203.97 246.758 201.561 252.223C201.274 252.906 200.842 253.553 200.267 254.092C199.872 254.452 199.368 254.631 198.937 254.344C197.715 253.589 196.457 252.87 195.882 251.432C195.738 251.072 195.522 250.856 195.163 250.713C190.31 248.663 185.996 245.859 182.222 242.192C174.709 234.822 170.503 225.834 169.749 215.372C169.102 206.492 171.258 198.223 176.039 190.673C176.327 190.206 176.291 189.954 175.859 189.631C174.134 188.372 172.445 187.078 170.755 185.748C170.252 185.352 170.072 185.46 169.749 185.964C162.667 197.612 160.403 210.087 163.71 223.317C170.288 249.706 196.457 265.273 222.841 258.694C248.615 252.259 264.539 225.151 257.566 199.517C252.138 179.564 235.71 165.687 214.969 163.673C204.473 162.667 194.695 165.004 185.601 170.36C185.026 170.72 185.026 170.936 185.385 171.439C189.447 176.904 193.869 182.081 198.47 187.114C202.46 191.464 207.205 194.736 212.345 197.54C212.489 197.612 212.597 197.72 212.776 197.612C213.028 194.844 213.172 192.075 213.639 189.307C214.718 182.979 217.306 177.191 219.858 171.367C220.145 170.684 220.541 170.073 221.08 169.569C221.475 169.21 221.943 168.958 222.41 169.246C224.028 170.145 225.501 171.223 225.897 173.237C226.328 175.609 225.789 177.91 225.394 180.247C225.322 180.786 225.394 181.002 225.861 181.218C227.91 182.26 229.815 183.555 231.612 184.993C241.893 193.262 246.35 207.211 242.756 219.902C241.03 225.762 237.975 230.831 233.446 235.038ZM239.736 39.0645C239.449 38.5971 239.161 38.1297 238.873 37.6624C235.243 31.6225 230.21 27.2004 223.704 24.4681C217.342 21.7717 210.763 21.2684 204.041 22.8862C198.578 24.2164 193.833 26.8409 189.771 30.7596C189.447 31.0832 189.16 31.2989 189.771 31.6584C194.623 34.6784 199.081 38.1657 203.287 42.0485C203.646 42.3721 203.862 42.408 204.257 42.0844C207.313 39.6038 210.835 39.0645 214.466 40.143C219.391 41.653 222.734 45.0684 224.459 49.886C225.537 52.9419 225.286 56.0697 223.596 58.9099C223.057 59.8446 223.345 60.0603 224.135 60.312C232.403 63.26 238.981 68.7247 245.272 74.5489C245.991 75.196 246.674 75.9151 247.141 76.8139C247.429 77.3531 247.608 77.9643 247.069 78.3957C245.955 79.3664 244.805 80.3012 243.223 80.3372C242.899 80.3372 242.648 80.445 242.432 80.6967C240.599 82.7819 238.55 84.6873 236.285 86.3411C229.024 91.7339 220.864 94.4662 211.878 94.61C204.041 94.7179 196.78 92.7046 190.058 88.678C189.555 88.3903 189.339 88.4622 189.052 88.8937C187.866 90.4755 186.679 92.0934 185.421 93.6393C184.954 94.2145 185.026 94.4662 185.673 94.8257C196.565 101.225 208.211 103.274 220.541 100.686C247.644 94.9695 264.288 68.3292 257.566 41.5092C251.203 16.0554 225.358 -0.0870029 199.153 6.42027C172.948 12.9275 157.491 38.4174 163.53 64.6622C164.716 69.8752 166.837 74.7646 169.677 79.2586C169.856 79.5462 169.928 79.9776 170.467 79.5462C172.265 78.1441 174.098 76.742 175.931 75.3758C176.327 75.0882 176.255 74.8365 176.039 74.477C174.386 71.7806 173.163 68.8685 172.229 65.8845C171.69 64.1948 171.294 62.4332 171.079 60.6715C171.115 61.1029 171.294 61.4625 171.402 61.8939C172.516 66.1362 174.098 70.1987 176.471 73.9018C176.83 74.441 177.01 74.5489 177.549 74.0815C179.957 72.0682 182.33 70.0549 184.63 67.9338C187.902 64.9138 191.137 61.822 193.581 58.0111C195.666 54.7754 197.463 51.36 199.476 48.0884C199.8 47.5851 199.512 47.4772 199.153 47.2974C196.744 46.2189 194.3 45.1403 191.892 43.9899C185.349 40.8621 180.173 35.9367 174.961 31.0832C174.529 30.6518 174.17 30.1484 173.954 29.5732C173.775 29.1418 173.739 28.7104 174.098 28.3868C175.608 27.0566 177.189 25.978 179.382 26.4454C181.611 26.9128 183.516 28.0632 185.493 29.1058C185.96 29.3575 186.248 29.4294 186.643 28.998C188.297 27.3083 190.202 25.9061 192.251 24.7197C200.77 19.7224 209.865 18.3922 219.355 21.2324C228.773 24.0366 235.638 30.0046 239.88 38.9207C239.844 38.9566 239.772 38.9926 239.736 39.0645ZM86.4608 234.283C92.1044 225.51 94.1533 215.947 92.4279 205.629C91.6011 200.632 89.7679 195.994 87.1438 191.68C86.7484 191.069 86.5327 190.853 85.8857 191.464C85.0229 192.291 84.0883 193.01 83.1537 193.765C76.0364 199.553 70.0333 206.312 65.9354 214.617C64.9649 216.594 63.7786 218.464 62.4486 220.226C61.1905 221.879 59.7886 223.389 57.8834 224.252C57.0567 224.612 56.9129 224.971 57.2723 225.798C60.6872 233.779 61.3343 242.228 61.3702 250.785C61.3702 251.935 61.3343 253.121 61.0108 254.236C60.831 254.883 60.5435 255.494 59.7167 255.422C57.4521 255.243 55.475 254.488 54.4326 252.223C53.8574 251 53.462 249.742 53.1026 248.412C52.8869 247.621 52.8869 246.614 52.4196 246.075C51.8804 245.464 50.802 245.787 49.9752 245.679C42.75 244.673 36.2797 241.904 31.0674 236.763C21.1103 227.02 18.1986 215.336 22.1527 201.998C22.5841 200.56 23.1592 199.122 23.986 197.756C24.0219 197.899 24.0579 197.935 24.0219 197.935C23.8781 198.259 23.7344 198.619 23.5906 198.942C20.643 206.42 20.4273 214.006 23.1592 221.52C26.3225 230.256 32.2537 236.44 40.8448 240.071C44.08 241.437 47.4949 242.156 50.9817 242.372C51.3771 242.408 51.7006 242.408 51.5569 241.833C50.5144 236.512 50.0831 231.119 50.0112 225.69C50.0112 225.295 49.9033 225.079 49.5079 224.971C45.6257 223.821 42.8578 221.232 40.7729 217.925C37.6097 212.963 38.5802 206.851 43.0016 202.969C44.8349 201.351 46.9557 200.093 49.1125 198.906C49.7236 198.583 49.7595 198.295 49.5439 197.684C48.5733 194.88 47.4949 192.075 46.8119 189.127C45.4819 183.195 45.4819 177.155 45.4819 171.151C45.4819 170.36 45.5538 169.569 45.8773 168.814C46.093 168.311 46.4165 167.88 47.0276 167.952C48.4295 168.131 49.8314 168.311 50.9458 169.318C51.3412 169.677 51.7366 169.785 52.2398 169.785C55.2953 169.713 58.2788 170.037 61.2624 170.648C65.8995 171.619 70.249 173.344 74.275 175.861C74.7423 176.149 74.958 176.149 75.2815 175.681C76.3239 174.243 77.4023 172.805 78.5167 171.439C79.0558 170.792 78.948 170.54 78.2291 170.109C66.6184 163.35 54.2888 161.588 41.2762 164.824C16.0418 171.044 0.081644 197.252 6.12064 222.526C12.1237 247.441 35.3091 263.26 60.5794 259.521C72.8012 257.723 82.9021 251.971 90.7384 242.408C99.4734 231.766 103.032 219.471 101.45 205.773C100.624 198.547 98.1793 191.896 94.3331 185.748C94.0455 185.28 93.8658 185.244 93.4704 185.568C91.8887 186.826 90.2711 188.049 88.6535 189.235C88.2222 189.559 88.2941 189.774 88.5097 190.206C93.5782 198.942 95.2317 208.29 93.5063 218.212C92.5357 223.857 90.379 229.034 87.1078 233.743C86.9281 233.959 86.9281 234.427 86.4608 234.283ZM85.1308 29.1777C83.0099 26.5533 80.6375 24.1804 77.9056 22.1671C68.7752 15.5161 58.6024 12.8556 47.4949 14.8689C34.051 17.3137 24.3455 24.9354 18.4862 37.3388C17.947 38.4893 17.5875 39.7116 17.1202 40.898C18.63 41.0059 20.0319 41.1137 21.4338 41.2575C28.0839 41.9766 34.5542 43.4866 40.8808 45.6437C41.4919 45.8594 41.8154 45.6796 42.1749 45.2482C43.397 43.7742 44.799 42.4799 46.4165 41.4733C50.9458 38.6331 56.6613 39.1004 60.4356 42.5878C61.6937 43.7382 62.6643 45.1044 63.5989 46.5065C65.1446 48.8793 66.4746 51.396 67.8765 53.8766C68.2 54.4519 68.5595 54.6676 69.2425 54.6676C72.6215 54.7035 76.0004 54.6316 79.3075 55.3147C84.304 56.3214 89.1568 57.8673 93.9736 59.593C94.7644 59.8806 95.5552 60.2401 96.2382 60.7794C96.7055 61.1748 97.065 61.6422 96.7774 62.2893C95.735 64.6262 94.1174 66.1362 91.4214 66.2081C89.6241 66.28 87.8268 66.1362 86.0294 65.9564C85.5262 65.9205 85.2746 66.0283 85.0948 66.5317C84.5916 67.8619 83.9086 69.0842 83.1897 70.2706C82.8662 70.8099 82.974 71.0616 83.4054 71.4571C86.6046 74.1534 89.9117 76.742 93.2547 79.2945C93.9736 79.8338 94.2612 79.8338 94.7285 79.0429C101.163 68.2214 103.356 56.6809 100.983 44.3135C95.8788 18.0327 70.1052 0.883691 43.8284 6.1686C18.4502 11.2378 1.62733 35.2896 5.50954 60.8513C7.34281 72.967 13.0583 83.0335 22.4762 90.7991C32.9366 99.4635 45.0865 102.987 58.6024 101.693C65.7916 101.009 72.4777 98.6725 78.6604 94.9336C79.0918 94.6819 79.2715 94.5022 78.8761 93.9988C76.1801 90.3677 73.3404 86.8085 70.3928 83.3931C70.0333 82.9616 69.7817 82.9257 69.2784 83.1773C62.5924 86.5209 55.5469 87.5635 48.1779 86.2332C42.2468 85.1547 36.9986 82.6021 32.4334 78.6474C32.1818 78.4317 31.7864 78.2519 31.6785 77.6048C33.368 79.0069 34.9856 80.1574 36.711 81.1281C43.2533 84.7952 50.2628 86.0535 57.6678 84.903C61.1905 84.3637 64.5335 83.1773 67.6608 81.4516C67.9484 81.2719 68.4876 81.2 67.9484 80.6607C65.5041 78.1081 63.1675 75.4117 60.3637 73.1827C56.6613 70.3066 52.5274 68.1135 48.4655 65.7767C46.5603 64.6981 44.6911 63.5117 43.0016 62.0736C40.3416 59.7727 38.9037 56.9325 38.9756 53.4092C38.9756 52.6543 38.76 52.5105 38.077 52.5105C35.0934 52.4386 32.0739 52.5464 29.0904 52.115C23.4468 51.2881 18.0908 49.4186 12.6988 47.5851C11.908 47.2975 11.1172 46.9379 10.4701 46.3627C10.0747 46.0032 9.71527 45.5718 9.9669 44.9965C10.6139 43.6663 11.2969 42.3361 12.6988 41.653C13.0583 41.4733 13.238 41.2216 13.3818 40.8621C16.1856 32.5932 21.0743 25.7983 28.1198 20.6931C36.9986 14.2218 46.9917 11.5973 57.9194 12.9994C66.9419 14.1499 74.7423 17.9967 81.2486 24.3602C82.7224 25.7983 84.1962 27.3083 85.2746 29.1058C85.2386 29.1058 85.1667 29.1418 85.1308 29.1777ZM177.01 190.565C174.278 195.239 172.516 200.164 171.726 205.449C170.863 211.381 171.294 217.206 173.163 222.85C176.866 233.887 184.019 241.869 194.695 246.65C195.235 246.902 195.414 246.866 195.486 246.219C195.918 242.624 196.672 239.1 197.607 235.613C198.865 231.011 200.447 226.517 202.352 222.167C202.496 221.843 202.747 221.592 202.388 221.196C200.267 218.752 198.649 215.947 197.212 213.107C192.575 203.76 185.026 197.037 177.01 190.565ZM131.969 159.827C147.318 159.755 158.713 147.603 159.324 133.761C160.007 118.266 147.677 105.252 132.077 105.252C116.764 105.252 105.369 117.403 104.722 131.209C104.003 146.776 116.368 159.755 131.969 159.827ZM238.945 79.3305C238.873 79.2586 238.873 79.2226 238.838 79.2226C231.253 75.4118 224.387 70.5583 218.168 64.806C217.809 64.4824 217.557 64.5543 217.234 64.77C215.796 65.6329 214.322 66.4597 212.884 67.2866C209.361 69.2999 205.767 71.2773 202.711 73.9737C198.326 77.8565 194.516 82.3145 190.777 86.8085C190.274 87.4196 190.885 87.4556 191.173 87.5994C199.584 92.0934 208.463 93.4595 217.809 91.5541C226.113 89.8284 233.158 85.7299 238.945 79.3305ZM56.6253 194.484C58.171 193.549 59.537 192.615 60.831 191.536C65.3243 187.689 69.0987 183.195 72.909 178.737C73.3044 178.27 72.8731 178.198 72.6214 178.054C69.4222 176.292 66.0433 175.034 62.4846 174.243C59.4651 173.56 56.4096 173.273 53.2463 173.344C55.2593 180.247 56.3018 187.222 56.6253 194.484ZM198.614 206.78C198.685 206.025 198.218 205.521 197.931 204.982C193.833 197.684 188.225 191.68 181.97 186.251C180.82 185.28 180.82 185.316 179.85 186.503C179.418 187.042 179.418 187.294 179.993 187.761C186.859 193.37 193.258 199.517 198.614 206.78ZM206.162 66.1721C206.126 66.1002 206.09 66.0283 206.054 65.9564C205.515 66.244 204.94 66.5317 204.401 66.8193C197.319 70.8459 191.424 76.2746 186.104 82.3504C185.098 83.5009 185.134 83.5009 186.32 84.4716C186.823 84.903 187.075 84.9749 187.578 84.3997C191.604 79.4743 195.953 74.8365 200.734 70.6302C202.46 69.0483 204.293 67.6102 206.162 66.1721ZM57.7396 198.978C58.0991 199.158 58.3507 198.942 58.6024 198.798C59.6089 198.223 60.6513 197.684 61.6219 197.073C67.6968 193.262 72.8731 188.48 77.618 183.123C78.7323 181.865 78.9121 182.26 77.3664 181.038C76.8631 180.643 76.6115 180.643 76.1442 181.182C70.6444 187.761 64.6773 193.873 57.7396 198.978ZM91.7449 83.2492C91.5292 83.0695 91.3495 82.9257 91.1338 82.7819C87.8268 80.3371 84.5197 77.8565 81.3924 75.1241C80.3859 74.2253 80.4218 74.2972 79.5231 75.196C78.8761 75.8432 79.0918 76.1667 79.631 76.6701C82.7224 79.5103 85.9935 82.0988 89.4444 84.5075C89.696 84.6873 89.9836 85.2266 90.343 84.8671C90.8822 84.3997 91.2776 83.8245 91.7449 83.2492ZM177.01 94.7898C174.529 97.8097 167.736 111.939 167.124 115.498C167.412 115.031 167.592 114.779 167.736 114.527C170.863 108.847 174.134 103.274 177.657 97.8457C178.807 96.0481 178.807 96.0481 177.01 94.7898ZM96.7774 149.796C96.7055 149.904 96.6336 149.94 96.6336 149.976C93.1109 156.267 89.5522 162.523 85.5262 168.527C85.3105 168.85 85.3824 168.994 85.634 169.174C85.8857 169.354 86.1732 169.498 86.353 169.749C86.8922 170.36 87.2157 170.181 87.6111 169.534C91.2417 163.494 94.369 157.238 96.7055 150.587C96.7774 150.371 96.9212 150.156 96.7774 149.796ZM149.187 167.7C149.367 167.808 149.511 167.916 149.655 167.988C155.586 171.223 161.409 174.639 167.053 178.306C168.311 179.133 168.275 179.133 169.245 178.018C169.677 177.515 169.713 177.335 169.102 176.976C162.991 173.273 156.628 170.145 149.906 167.772C149.69 167.664 149.475 167.556 149.187 167.7ZM94.4768 87.7792C98.6826 90.7632 112.558 97.3423 114.787 97.3064C114.104 96.9109 113.564 96.5874 113.025 96.2997C107.741 93.4236 102.601 90.3317 97.5323 87.0961C95.735 85.9456 95.735 85.9456 94.5128 87.6713C94.4768 87.7432 94.4768 87.7792 94.4768 87.7792ZM67.3014 62.1096C67.4811 62.4332 67.589 62.577 67.6608 62.7208C70.1052 66.4957 72.9809 69.9471 76.0723 73.2187C76.6834 73.8658 76.935 73.7939 77.4742 73.1468C78.0494 72.4278 78.0494 72.0682 77.3304 71.4211C74.4188 68.8326 71.7228 65.9564 69.1706 63.0084C68.7033 62.4332 68.1641 62.2174 67.3014 62.1096ZM174.062 180.175C173.811 180.139 173.739 180.319 173.631 180.463C173.343 180.786 173.092 181.146 172.804 181.434C172.445 181.829 172.48 182.045 172.912 182.332C174.386 183.411 175.859 184.489 177.297 185.604C178.735 186.718 178.735 186.718 179.885 185.316C180.209 184.921 180.137 184.777 179.778 184.489C178.052 183.051 176.183 181.757 174.386 180.427C174.314 180.355 174.17 180.247 174.062 180.175ZM186.14 86.0175C185.673 85.6221 185.206 85.2625 184.81 84.8311C184.451 84.4716 184.199 84.4716 183.875 84.903C182.797 86.3411 181.683 87.7792 180.64 89.2172C179.634 90.5834 179.634 90.5834 181 91.626C181.431 91.9496 181.647 91.9855 182.006 91.5181C183.228 89.8284 184.523 88.1387 185.781 86.4849C185.889 86.3411 185.996 86.1973 186.14 86.0175ZM78.265 178.557C78.6604 178.881 79.1277 179.169 79.4872 179.528C80.0264 180.139 80.3499 179.888 80.7094 179.384C81.5721 178.198 82.4708 177.047 83.3335 175.861C84.4837 174.315 84.4478 174.351 82.9021 173.237C82.5067 172.985 82.3629 173.057 82.1113 173.38C80.8532 175.142 79.5591 176.868 78.265 178.557ZM81.7518 65.4891C79.7748 65.1295 77.7977 64.7341 75.8207 64.3745C77.0788 65.7767 78.4088 67.035 79.7388 68.2933C79.8826 68.4371 80.0623 68.545 80.2421 68.7247C80.8532 67.6462 81.3924 66.6395 81.7518 65.4891Z" fill="#E5E5E5" fill-opacity="0.1"/>
<path d="M85.1364 29C85.4091 29.2875 85.6818 29.6229 85.9545 29.9104H86C85.2273 30.2937 85.3636 29.3354 85 29.1437C85 29.0958 85.0909 29.0479 85.1364 29Z" fill="#E5E5E5" fill-opacity="0.1"/>
<path d="M86 30.1844C86.0359 30.0046 86.1438 29.9327 86.2876 30.0765C86.3235 30.1125 86.3595 30.2203 86.3235 30.2203C86.2157 30.4001 86.1438 30.0765 86 30.1844Z" fill="#E5E5E5" fill-opacity="0.1"/>
<path d="M86.0881 31C86.196 30.7143 85.7646 30.2143 86.196 30C86.196 30 86.16 30 86.196 30C86.1241 30.3571 86.4835 30.8571 86.0881 31C86.0522 31 86.0881 31 86.0881 31Z" fill="#E5E5E5" fill-opacity="0.1"/>
<path d="M31.1078 77C31.1797 77.0719 31.3235 77.1438 31.2157 77.2517C31.0719 77.3955 31.0359 77.2157 31 77.1079C31.0359 77.1079 31.0719 77.0719 31.1078 77Z" fill="#E5E5E5" fill-opacity="0.1"/>
<path d="M31.1078 77C31.1797 77.0719 31.2157 77.1079 31.2876 77.1798C31.2516 77.2157 31.2157 77.2517 31.1797 77.3236C31.0719 77.3236 31 77.2517 31 77.1438C31.0359 77.0719 31.0719 77.036 31.1078 77Z" fill="#E5E5E5" fill-opacity="0.1"/>
<path d="M31 77.0775C31.1438 76.8977 31.2157 77.0775 31.2876 77.1493C31.2516 77.1853 31.2157 77.2213 31.1797 77.2572C31.0719 77.2572 31.0359 77.1853 31 77.0775C31.0359 77.0415 31 77.0775 31 77.0775Z" fill="#E5E5E5" fill-opacity="0.1"/>
<path d="M31.2157 77.1923C31.0719 77.1923 31.0359 77.1563 31.0359 77.0125H31C31.1797 76.9766 31.2516 77.0125 31.2157 77.1923Z" fill="#E5E5E5" fill-opacity="0.1"/>
<path d="M31 77.016C31.0719 77.016 31.1438 77.0519 31.2157 77.0519C31.1797 77.0879 31.1797 77.1598 31.1438 77.1957H31.1797C31.0719 77.1957 31 77.1238 31 77.016C31.0359 76.98 31 77.016 31 77.016Z" fill="#E5E5E5" fill-opacity="0.1"/>
<path d="M31.1438 77.1797C31.1078 77.1438 31.0719 77.0719 31 77.036C31.0359 77.036 31.0719 77 31.0719 77C31.2157 77.0719 31.2157 77.1438 31.1438 77.1797C31.1438 77.2157 31.1438 77.1797 31.1438 77.1797Z" fill="#E5E5E5" fill-opacity="0.1"/>
<path d="M30.016 76L30.0519 76.036C30.016 76.036 30.016 76 30.016 76C29.98 76 30.016 76 30.016 76Z" fill="#E5E5E5" fill-opacity="0.1"/>
<path d="M30 76.0163C30.0366 75.9797 30.0366 76.0163 30 76.0163C30.0366 76.0163 30 76.0163 30 76.0163Z" fill="#E5E5E5" fill-opacity="0.1"/>
<path d="M86.1174 234C86.369 234.072 86.1893 234.216 86.1533 234.324C86.1533 234.359 86.0096 234.359 86.0096 234.359C85.9736 234.216 86.0455 234.108 86.1174 234C86.1533 234.036 86.1174 234 86.1174 234Z" fill="#E5E5E5" fill-opacity="0.1"/>
<path d="M240.148 40C240.444 40.6545 240.704 41.3455 241 42C240.556 41.4182 240.222 40.8 240 40.1091C240.037 40.0727 240.111 40.0364 240.148 40Z" fill="#E5E5E5" fill-opacity="0.1"/>
<path d="M240.144 39C240.216 39.2857 240.252 39.5 240.323 39.7857C240.288 39.8572 240.216 39.9286 240.18 40C240.036 39.8571 240 39.5714 240 39.2857C240.036 39.1429 240.108 39.0714 240.144 39Z" fill="#E5E5E5" fill-opacity="0.1"/>
<path d="M241.036 42C241.036 42.036 241.072 42.1079 241.072 42.1438C241.072 42.1798 241.036 42.1798 241.036 42.2157C241.036 42.1798 241 42.1078 241 42.0719C241 42.0359 241.036 42 241.036 42Z" fill="#E5E5E5" fill-opacity="0.1"/>
<path d="M240.18 39C240.216 39.2143 240.288 39.4286 240.324 39.7143C240.288 39.7857 240.216 39.9286 240.18 40C240.036 39.8571 240 39.5714 240 39.2857C240.036 39.1429 240.108 39.0714 240.18 39Z" fill="#E5E5E5" fill-opacity="0.1"/>
<path d="M233 235.2C232.722 235.533 232.5 236 232 236C232.167 235.467 232.444 235.2 232.833 235C232.833 235.067 232.944 235.133 233 235.2Z" fill="#E5E5E5" fill-opacity="0.1"/>
<path d="M233.288 235.144C233.216 235.216 233.18 235.252 233.108 235.324C233.072 235.288 233.036 235.216 233 235.18C233.072 235.108 233.108 235.072 233.18 235C233.18 235.036 233.216 235.072 233.288 235.144Z" fill="#E5E5E5" fill-opacity="0.1"/>
<path d="M233.288 235.144C233.216 235.18 233.18 235.252 233.108 235.288C233.072 235.252 233.036 235.216 233 235.18C233 235.072 233.072 235 233.18 235C233.252 235.072 233.288 235.108 233.288 235.144Z" fill="#E5E5E5" fill-opacity="0.1"/>
<path d="M132.553 154C120.155 153.928 111.073 143.872 111 132.663C110.928 121.382 119.939 111.146 132.409 111.002C144.122 110.857 153.853 120.481 153.997 132.303C154.178 143.656 145.095 153.892 132.553 154ZM132.517 147.981C141.131 147.981 148.087 141.061 148.051 132.483C148.051 124.013 141.095 117.129 132.625 117.021C124.552 116.913 117.019 123.4 116.947 132.483C116.947 141.061 123.939 147.981 132.517 147.981Z" fill="#E5E5E5" fill-opacity="0.1"/>
<path d="M145 132.982C145 140.166 139.186 145.964 132.018 146C124.814 146 119 140.202 119 133.018C119 125.835 124.778 120.037 131.982 120C139.149 119.964 145 125.798 145 132.982ZM132.823 124.996C132.823 124.668 132.823 124.303 132.823 123.975C132.713 122.115 132.311 121.787 130.446 122.006C130.153 122.042 129.897 122.115 129.641 122.152C124.814 123.1 120.975 127.621 120.865 132.471C120.865 133.091 120.975 133.383 121.633 133.565C127.264 135.133 132.896 130.867 132.823 124.996ZM142.221 137.321C140.502 136.774 139.039 137.139 137.759 138.196C136.37 139.363 136.004 140.895 136.224 142.645C136.297 143.119 136.48 143.119 136.845 142.937C139.295 141.734 141.051 139.874 142.221 137.321ZM132.859 132.727C132.859 132.435 132.53 132.107 132.018 132.107C131.543 132.107 131.177 132.362 131.141 132.945C131.141 133.529 131.47 133.821 131.945 133.857C132.457 133.857 132.823 133.565 132.859 132.727Z" fill="#E5E5E5" fill-opacity="0.1"/>
</svg>
