<svg width="40" height="40" viewBox="0 0 40 40" fill="none" xmlns="http://www.w3.org/2000/svg">
<path d="M8.25 14.5C7.01387 14.5 5.8055 14.1334 4.77769 13.4467C3.74988 12.7599 2.9488 11.7838 2.47576 10.6418C2.00271 9.49974 1.87894 8.24307 2.12009 7.03069C2.36125 5.81831 2.95651 4.70466 3.83059 3.83059C4.70466 2.95651 5.81831 2.36125 7.03069 2.12009C8.24307 1.87894 9.49974 2.00271 10.6418 2.47576C11.7838 2.9488 12.7599 3.74988 13.4467 4.77769C14.1334 5.8055 14.5 7.01387 14.5 8.25H12C12 7.50832 11.7801 6.7833 11.368 6.16661C10.956 5.54993 10.3703 5.06928 9.68507 4.78545C8.99984 4.50163 8.24584 4.42736 7.51841 4.57206C6.79099 4.71675 6.1228 5.07391 5.59835 5.59835C5.07391 6.1228 4.71675 6.79099 4.57206 7.51841C4.42736 8.24584 4.50163 8.99984 4.78545 9.68507C5.06928 10.3703 5.54993 10.956 6.16661 11.368C6.7833 11.7801 7.50832 12 8.25 12V14.5ZM30.75 14.5V12C31.4917 12 32.2167 11.7801 32.8334 11.368C33.4501 10.956 33.9307 10.3703 34.2146 9.68507C34.4984 8.99984 34.5726 8.24584 34.4279 7.51841C34.2833 6.79099 33.9261 6.1228 33.4017 5.59835C32.8772 5.07391 32.209 4.71675 31.4816 4.57206C30.7542 4.42736 30.0002 4.50163 29.3149 4.78545C28.6297 5.06928 28.044 5.54993 27.632 6.16661C27.2199 6.7833 27 7.50832 27 8.25H24.5C24.5 7.01387 24.8666 5.8055 25.5533 4.77769C26.2401 3.74988 27.2162 2.9488 28.3582 2.47576C29.5003 2.00271 30.7569 1.87894 31.9693 2.12009C33.1817 2.36125 34.2953 2.95651 35.1694 3.83059C36.0435 4.70466 36.6388 5.81831 36.8799 7.03069C37.1211 8.24307 36.9973 9.49974 36.5243 10.6418C36.0512 11.7838 35.2501 12.7599 34.2223 13.4467C33.1945 14.1334 31.9861 14.5 30.75 14.5ZM8.25 37C6.5924 37 5.00269 36.3415 3.83059 35.1694C2.65848 33.9973 2 32.4076 2 30.75C2 29.0924 2.65848 27.5027 3.83059 26.3306C5.00269 25.1585 6.5924 24.5 8.25 24.5V27C7.50832 27 6.7833 27.2199 6.16661 27.632C5.54993 28.044 5.06928 28.6297 4.78545 29.3149C4.50163 30.0002 4.42736 30.7542 4.57206 31.4816C4.71675 32.209 5.07391 32.8772 5.59835 33.4017C6.1228 33.9261 6.79099 34.2833 7.51841 34.4279C8.24584 34.5726 8.99984 34.4984 9.68507 34.2146C10.3703 33.9307 10.956 33.4501 11.368 32.8334C11.7801 32.2167 12 31.4917 12 30.75H14.5C14.4983 32.4071 13.8393 33.9958 12.6676 35.1676C11.4958 36.3393 9.9071 36.9983 8.25 37ZM30.75 37C29.0929 36.9983 27.5042 36.3393 26.3324 35.1676C25.1607 33.9958 24.5017 32.4071 24.5 30.75H27C27 31.4917 27.2199 32.2167 27.632 32.8334C28.044 33.4501 28.6297 33.9307 29.3149 34.2146C30.0002 34.4984 30.7542 34.5726 31.4816 34.4279C32.209 34.2833 32.8772 33.9261 33.4017 33.4017C33.9261 32.8772 34.2833 32.209 34.4279 31.4816C34.5726 30.7542 34.4984 30.0002 34.2146 29.3149C33.9307 28.6297 33.4501 28.044 32.8334 27.632C32.2167 27.2199 31.4917 27 30.75 27V24.5C32.4076 24.5 33.9973 25.1585 35.1694 26.3306C36.3415 27.5027 37 29.0924 37 30.75C37 32.4076 36.3415 33.9973 35.1694 35.1694C33.9973 36.3415 32.4076 37 30.75 37Z" fill="#02E602"/>
<path d="M25.4892 22.7384V16.2773L32.6186 9.14781C32.7379 9.03257 32.8331 8.89473 32.8986 8.74231C32.964 8.5899 32.9985 8.42598 33 8.2601C33.0014 8.09423 32.9698 7.92973 32.907 7.7762C32.8442 7.62267 32.7514 7.48319 32.6341 7.3659C32.5168 7.2486 32.3773 7.15584 32.2238 7.09303C32.0703 7.03021 31.9058 6.99861 31.7399 7.00005C31.574 7.00149 31.4101 7.03595 31.2577 7.10142C31.1053 7.16689 30.9674 7.26206 30.8522 7.38138L25.2306 13.003C24.916 11.9921 24.2864 11.1084 23.4338 10.4808C22.5812 9.85325 21.5502 9.51473 20.4916 9.51473C19.4329 9.51473 18.402 9.85325 17.5494 10.4808C16.6968 11.1084 16.0672 11.9921 15.7526 13.003L10.1322 7.38138C9.89793 7.14718 9.58023 7.01562 9.24898 7.01562C8.91772 7.01562 8.60003 7.14718 8.36576 7.38138C8.13156 7.61565 8 7.93334 8 8.2646C8 8.59585 8.13156 8.91355 8.36576 9.14781L15.4952 16.2773V22.7384L8.36576 29.8678C8.13156 30.1021 8 30.4198 8 30.751C8 31.0823 8.13156 31.4 8.36576 31.6342C8.60003 31.8684 8.91772 32 9.24898 32C9.58023 32 9.89793 31.8684 10.1322 31.6342L15.7538 26.0126C16.0684 27.0235 16.698 27.9072 17.5506 28.5348C18.4032 29.1624 19.4341 29.5009 20.4928 29.5009C21.5515 29.5009 22.5824 29.1624 23.435 28.5348C24.2876 27.9072 24.9172 27.0235 25.2318 26.0126L30.8534 31.6342C31.089 31.8618 31.4046 31.9877 31.7322 31.9849C32.0597 31.982 32.373 31.8506 32.6047 31.619C32.8363 31.3874 32.9677 31.0741 32.9705 30.7465C32.9733 30.419 32.8474 30.1034 32.6199 29.8678L25.4892 22.7384ZM22.9907 24.5048C22.9907 25.1674 22.7274 25.8029 22.2589 26.2715C21.7903 26.74 21.1548 27.0033 20.4922 27.0033C19.8295 27.0033 19.194 26.74 18.7255 26.2715C18.2569 25.8029 17.9937 25.1674 17.9937 24.5048V14.5108C17.9937 13.8482 18.2569 13.2127 18.7255 12.7441C19.194 12.2756 19.8295 12.0123 20.4922 12.0123C21.1548 12.0123 21.7903 12.2756 22.2589 12.7441C22.7274 13.2127 22.9907 13.8482 22.9907 14.5108V24.5048Z" fill="#02E602"/>
</svg>
