<svg width="40" height="40" viewBox="0 0 40 40" fill="none" xmlns="http://www.w3.org/2000/svg">
<path d="M15 20C15 22.7569 17.2431 25 20 25C22.7569 25 25 22.7569 25 20C25 17.2431 22.7569 15 20 15C17.2431 15 15 17.2431 15 20ZM23.75 20C23.75 22.0681 22.0681 23.75 20 23.75C17.9319 23.75 16.25 22.0681 16.25 20C16.25 17.9319 17.9319 16.25 20 16.25C22.0681 16.25 23.75 17.9319 23.75 20Z" fill="#02E602"/>
<path d="M35.8333 16.8333C34.3045 16.8333 33.0251 17.9233 32.7306 19.3667H29.5V15.5667C29.5 15.3399 29.3784 15.1297 29.1808 15.0169L27.0794 13.8161L31.5564 9.3391C32.0574 9.67097 32.6559 9.86667 33.3 9.86667C35.0461 9.86667 36.4667 8.4461 36.4667 6.7C36.4667 4.9539 35.0461 3.53333 33.3 3.53333C31.5539 3.53333 30.1333 4.9539 30.1333 6.7C30.1333 7.3441 30.329 7.9426 30.6609 8.44357L25.9394 13.1651L20.6333 10.1327V7.26937C22.0767 6.97487 23.1667 5.69617 23.1667 4.16667C23.1667 2.42057 21.7461 1 20 1C18.2539 1 16.8333 2.42057 16.8333 4.16667C16.8333 5.69553 17.9233 6.97487 19.3667 7.26937V10.1327L14.0606 13.1651L9.3391 8.44357C9.67097 7.9426 9.86667 7.3441 9.86667 6.7C9.86667 4.9539 8.4461 3.53333 6.7 3.53333C4.9539 3.53333 3.53333 4.9539 3.53333 6.7C3.53333 8.4461 4.9539 9.86667 6.7 9.86667C7.3441 9.86667 7.9426 9.67097 8.44357 9.3391L12.9206 13.8161L10.8192 15.0169C10.6216 15.1297 10.5 15.3399 10.5 15.5667V19.3667H7.26937C6.97487 17.9233 5.69553 16.8333 4.16667 16.8333C2.42057 16.8333 1 18.2539 1 20C1 21.7461 2.42057 23.1667 4.16667 23.1667C5.69553 23.1667 6.97487 22.0767 7.26937 20.6333H10.5V24.4333C10.5 24.6601 10.6216 24.8703 10.8192 24.9831L12.9206 26.1839L8.44357 30.6609C7.9426 30.329 7.3441 30.1333 6.7 30.1333C4.9539 30.1333 3.53333 31.5539 3.53333 33.3C3.53333 35.0461 4.9539 36.4667 6.7 36.4667C8.4461 36.4667 9.86667 35.0461 9.86667 33.3C9.86667 32.6559 9.67097 32.0574 9.3391 31.5564L14.0606 26.8349L19.3667 29.8673V32.7306C17.9233 33.0251 16.8333 34.3038 16.8333 35.8333C16.8333 37.5794 18.2539 39 20 39C21.7461 39 23.1667 37.5794 23.1667 35.8333C23.1667 34.3045 22.0767 33.0251 20.6333 32.7306V29.8673L25.9394 26.8349L30.6609 31.5564C30.329 32.0574 30.1333 32.6559 30.1333 33.3C30.1333 35.0461 31.5539 36.4667 33.3 36.4667C35.0461 36.4667 36.4667 35.0461 36.4667 33.3C36.4667 31.5539 35.0461 30.1333 33.3 30.1333C32.6559 30.1333 32.0574 30.329 31.5564 30.6609L27.0794 26.1839L29.1808 24.9831C29.3784 24.8703 29.5 24.6601 29.5 24.4333V20.6333H32.7306C33.0251 22.0767 34.3038 23.1667 35.8333 23.1667C37.5794 23.1667 39 21.7461 39 20C39 18.2539 37.5794 16.8333 35.8333 16.8333ZM33.3 4.8C34.3475 4.8 35.2 5.65247 35.2 6.7C35.2 7.74753 34.3475 8.6 33.3 8.6C32.2525 8.6 31.4 7.74753 31.4 6.7C31.4 5.65247 32.2525 4.8 33.3 4.8ZM6.7 8.6C5.65247 8.6 4.8 7.74753 4.8 6.7C4.8 5.65247 5.65247 4.8 6.7 4.8C7.74753 4.8 8.6 5.65247 8.6 6.7C8.6 7.74753 7.74753 8.6 6.7 8.6ZM4.16667 21.9C3.11913 21.9 2.26667 21.0475 2.26667 20C2.26667 18.9525 3.11913 18.1 4.16667 18.1C5.2142 18.1 6.06667 18.9525 6.06667 20C6.06667 21.0475 5.2142 21.9 4.16667 21.9ZM6.7 35.2C5.65247 35.2 4.8 34.3475 4.8 33.3C4.8 32.2525 5.65247 31.4 6.7 31.4C7.74753 31.4 8.6 32.2525 8.6 33.3C8.6 34.3475 7.74753 35.2 6.7 35.2ZM33.3 31.4C34.3475 31.4 35.2 32.2525 35.2 33.3C35.2 34.3475 34.3475 35.2 33.3 35.2C32.2525 35.2 31.4 34.3475 31.4 33.3C31.4 32.2525 32.2525 31.4 33.3 31.4ZM18.1 4.16667C18.1 3.11913 18.9525 2.26667 20 2.26667C21.0475 2.26667 21.9 3.11913 21.9 4.16667C21.9 5.2142 21.0475 6.06667 20 6.06667C18.9525 6.06667 18.1 5.2142 18.1 4.16667ZM21.9 35.8333C21.9 36.8809 21.0475 37.7333 20 37.7333C18.9525 37.7333 18.1 36.8809 18.1 35.8333C18.1 34.7858 18.9525 33.9333 20 33.9333C21.0475 33.9333 21.9 34.7858 21.9 35.8333ZM28.2333 24.066L20 28.771L11.7667 24.066V15.934L20 11.229L28.2333 15.934V24.066ZM35.8333 21.9C34.7858 21.9 33.9333 21.0475 33.9333 20C33.9333 18.9525 34.7858 18.1 35.8333 18.1C36.8809 18.1 37.7333 18.9525 37.7333 20C37.7333 21.0475 36.8809 21.9 35.8333 21.9Z" fill="#02E602"/>
</svg>
