<svg width="40" height="40" viewBox="0 0 40 40" fill="none" xmlns="http://www.w3.org/2000/svg">
<path d="M25 25H38V27.6667H25V25ZM25 30.3333H32.8V33H25V30.3333Z" fill="#02E602"/>
<path d="M38 21.7349V20.4838C37.9966 16.8501 36.8623 13.3077 34.7544 10.348C32.6464 7.38828 29.6695 5.15812 26.2367 3.96698C22.8038 2.77585 19.0854 2.68282 15.5973 3.7008C12.1091 4.71879 9.02442 6.7973 6.77114 9.6479C4.51786 12.4985 3.20779 15.9798 3.02272 19.6087C2.83765 23.2376 3.78677 26.8341 5.73837 29.8991C7.68996 32.9642 10.5472 35.3457 13.9137 36.7133C17.2801 38.0808 20.9888 38.3666 24.525 37.5308L23.9495 35.0961C22.8137 35.3637 21.6506 35.4985 20.4837 35.4977C20.246 35.4977 20.0145 35.4739 19.7793 35.4639C17.0644 31.394 15.5825 26.6267 15.5116 21.7349H38ZM35.4451 19.2326H27.9594C27.8202 14.6226 26.6333 10.1048 24.4887 6.02158C27.4446 6.84332 30.0786 8.54926 32.0374 10.9106C33.9962 13.2719 35.1861 16.1757 35.4476 19.2326H35.4451ZM21.1894 5.5036C23.9038 9.57365 25.3853 14.3409 25.4559 19.2326H15.5116C15.5825 14.3408 17.0644 9.57351 19.7793 5.5036C20.0145 5.49484 20.246 5.46982 20.4837 5.46982C20.7215 5.46982 20.9529 5.49359 21.1881 5.5036H21.1894ZM16.48 6.02158C14.335 10.1046 13.1476 14.6225 13.008 19.2326H5.51984C5.78141 16.1756 6.97153 13.2716 8.93056 10.9103C10.8896 8.54895 13.5239 6.84311 16.48 6.02158ZM16.48 34.9459C13.5243 34.124 10.8906 32.4179 8.93205 30.0566C6.97349 27.6953 5.78374 24.7916 5.52234 21.7349H13.008C13.1472 26.3449 14.3341 30.8628 16.4788 34.9459H16.48Z" fill="#02E602"/>
</svg>
