<svg width="37" height="37" viewBox="0 0 37 37" fill="none" xmlns="http://www.w3.org/2000/svg">
<path d="M13.2817 17.7562C13.0169 17.758 12.7545 17.7083 12.5095 17.6098C12.2646 17.5114 12.0421 17.3661 11.8549 17.1826C11.6677 16.9991 11.5196 16.781 11.4191 16.5409C11.3187 16.3007 11.2679 16.0434 11.2698 15.7839C11.2698 14.6819 12.1575 13.8101 13.2817 13.8101C14.4042 13.8101 15.2935 14.6819 15.2935 15.7839C15.2935 16.8844 14.4042 17.7562 13.2817 17.7562ZM23.7183 17.7562C23.4536 17.758 23.1912 17.7083 22.9462 17.6098C22.7013 17.5114 22.4787 17.3661 22.2915 17.1826C22.1044 16.9991 21.9562 16.781 21.8558 16.5409C21.7554 16.3007 21.7046 16.0434 21.7065 15.7839C21.7065 14.6819 22.5958 13.8101 23.7183 13.8101C24.8425 13.8101 25.7302 14.6819 25.7302 15.7839C25.7302 16.8844 24.8425 17.7562 23.7183 17.7562ZM10.3946 29.5808L11.514 28.9116C12.7816 28.1539 14.2826 27.8623 15.7491 28.0889C16.0811 28.1395 16.3535 28.1794 16.5633 28.2055C17.1989 28.2884 17.8471 28.3299 18.5 28.3299C25.4202 28.3299 30.8687 23.6915 30.8687 18.1998C30.8687 12.7081 25.4202 8.06972 18.5 8.06972C11.5798 8.06972 6.13131 12.7081 6.13131 18.1998C6.13131 20.2964 6.91414 22.3025 8.37333 24.0031C8.44849 24.0906 8.56121 24.2134 8.70838 24.3638C9.3238 24.9921 9.79579 25.7416 10.093 26.5625C10.3902 27.3834 10.5058 28.2568 10.4322 29.1249L10.393 29.5808H10.3946ZM9.40823 33.7663C9.16198 33.9174 8.87771 33.9983 8.58724 34C8.29676 34.0017 8.01153 33.9241 7.76344 33.776C7.51535 33.6279 7.31418 33.415 7.18244 33.1612C7.0507 32.9074 6.99358 32.6227 7.01748 32.3389L7.31182 28.8701C7.34875 28.4362 7.29106 27.9994 7.14259 27.589C6.99413 27.1786 6.75827 26.8038 6.45071 26.4896C6.28649 26.3243 6.12776 26.1538 5.97475 25.9785C4.10535 23.7974 3 21.1083 3 18.1998C3 10.9092 9.93899 5 18.5 5C27.061 5 34 10.9092 34 18.1998C34 25.4904 27.061 31.3996 18.5 31.3996C17.7015 31.3996 16.9187 31.3489 16.1531 31.2492C15.8556 31.2097 15.5586 31.1667 15.2622 31.1202C14.5287 31.0068 13.7779 31.1525 13.1439 31.5316L9.40667 33.7663H9.40823Z" fill="white"/>
</svg>
