<svg width="40" height="40" viewBox="0 0 40 40" fill="none" xmlns="http://www.w3.org/2000/svg">
<circle cx="20" cy="20" r="19" fill="#1E1F20" fill-opacity="0.95" stroke="white" stroke-width="2"/>
<path d="M31.5023 18.8234L21.2734 8.90062L20.5877 8.23516C20.4315 8.08454 20.2203 8 20 8C19.7798 8 19.5686 8.08454 19.4124 8.23516L8.49779 18.8234C8.33772 18.9781 8.2112 19.1625 8.12573 19.3655C8.04025 19.5685 7.99754 19.786 8.00011 20.0053C8.0107 20.9097 8.78634 21.6317 9.71817 21.6317H10.8432V30H29.1569V21.6317H30.3058C30.7584 21.6317 31.1846 21.4595 31.505 21.1486C31.6627 20.9961 31.7876 20.8146 31.8726 20.6148C31.9576 20.415 32.0009 20.2009 32 19.9847C32 19.5479 31.8226 19.1343 31.5023 18.8234ZM21.4825 28.1501H18.5176V22.9086H21.4825V28.1501ZM27.2508 19.7818V28.1501H23.1767V22.292C23.1767 21.7242 22.7029 21.2643 22.1178 21.2643H17.8823C17.2972 21.2643 16.8234 21.7242 16.8234 22.292V28.1501H12.7493V19.7818H10.2079L20.0027 10.2829L20.6142 10.8764L29.7948 19.7818H27.2508Z" fill="#02E602"/>
</svg>
