<svg width="30" height="30" viewBox="0 0 30 30" fill="none" xmlns="http://www.w3.org/2000/svg">
<path d="M25.6171 4.36133C24.2356 2.97323 22.5903 1.87273 20.7772 1.12397C18.9641 0.375215 17.0194 -0.00683299 15.0565 9.24945e-05C6.83136 9.24945e-05 0.128076 6.67132 0.120542 14.8613C0.120542 17.4844 0.809894 20.0363 2.11138 22.2956L0 30L7.91813 27.9338C10.1086 29.1205 12.5626 29.7425 15.0565 29.7431H15.064C23.2911 29.7431 29.9925 23.0719 30 14.8744C30.0019 12.9208 29.6154 10.986 28.8629 9.18171C28.1103 7.37739 27.0066 5.73913 25.6153 4.36133H25.6171ZM15.0565 27.2269C12.8321 27.2276 10.6486 26.6317 8.73556 25.5019L8.28352 25.2319L3.58614 26.4581L4.84053 21.8963L4.54671 21.4257C3.30325 19.4575 2.64562 17.1788 2.65005 14.8538C2.65005 8.05507 8.21949 2.50883 15.064 2.50883C16.6946 2.50592 18.3097 2.82435 19.8161 3.44575C21.3225 4.06716 22.6904 4.97925 23.841 6.12945C24.9957 7.27516 25.911 8.63711 26.5343 10.1367C27.1575 11.6364 27.4763 13.244 27.4724 14.8669C27.4648 21.69 21.8954 27.2269 15.0565 27.2269ZM21.8653 17.9757C21.4942 17.79 19.6616 16.8919 19.3169 16.7644C18.9741 16.6425 18.7236 16.5788 18.4788 16.95C18.2283 17.3194 17.5126 18.1613 17.2978 18.4032C17.0831 18.6525 16.8609 18.6807 16.4879 18.4969C16.1169 18.3094 14.9134 17.9194 13.4894 16.65C12.3782 15.6657 11.6342 14.4469 11.412 14.0775C11.1973 13.7063 11.3913 13.5076 11.5777 13.3219C11.7416 13.1569 11.9488 12.8869 12.1352 12.6732C12.3236 12.4594 12.3857 12.3019 12.5082 12.0544C12.6306 11.8032 12.5722 11.5894 12.4799 11.4038C12.3857 11.2182 11.6418 9.38631 11.3272 8.64756C11.0259 7.91819 10.7189 8.01944 10.4891 8.01007C10.2744 7.99694 10.0239 7.99694 9.77335 7.99694C9.58418 8.00162 9.39803 8.04518 9.22657 8.12488C9.05511 8.20457 8.90205 8.31869 8.77699 8.46007C8.4342 8.83132 7.47551 9.72944 7.47551 11.5613C7.47551 13.3932 8.81278 15.1538 9.00113 15.4032C9.18571 15.6525 11.6267 19.4007 15.3729 21.0132C16.2582 21.3975 16.955 21.6244 17.4994 21.7969C18.394 22.0819 19.202 22.0388 19.8462 21.9469C20.5619 21.8382 22.0517 21.0469 22.3663 20.1788C22.6752 19.3088 22.6752 18.5663 22.581 18.4107C22.4887 18.2532 22.2382 18.1613 21.8653 17.9757Z" fill="white"/>
</svg>
