<svg width="40" height="40" viewBox="0 0 40 40" fill="none" xmlns="http://www.w3.org/2000/svg">
<circle cx="20" cy="20" r="19" fill="#1E1F20" fill-opacity="0.95" stroke="white" stroke-width="2"/>
<path d="M8 12.7557C8 15.0967 9.58164 17.0569 11.8038 17.5387C13.075 17.8155 14.271 17.6136 15.3886 16.9429C15.4213 16.9234 15.4474 16.8973 15.4801 16.9494C15.9213 17.6039 16.32 18.2811 16.5945 19.0235C16.699 19.3068 16.7807 19.5965 16.8036 19.8994C16.8265 20.1891 16.7578 20.4659 16.6729 20.7394C16.4539 21.446 16.0977 22.0874 15.7056 22.706C15.637 22.8167 15.5618 22.9242 15.4932 23.0316C15.467 23.0772 15.4442 23.0837 15.3952 23.0544C14.8462 22.7158 14.2481 22.4944 13.6109 22.4C12.2842 22.2079 11.0652 22.4911 9.98359 23.2791C8.90846 24.0638 8.26469 25.1285 8.05882 26.4407C7.67975 28.8697 9.21237 31.2759 11.7221 31.8619C14.3364 32.4741 16.8984 30.9242 17.5585 28.3324C17.8951 27.0072 17.6728 25.7569 16.9572 24.5945C16.918 24.5327 16.9212 24.5034 16.9833 24.4643C17.614 24.0508 18.2643 23.6698 18.9767 23.4028C19.2806 23.2889 19.5943 23.1944 19.9211 23.1782C20.2446 23.1586 20.5486 23.2433 20.8525 23.3442C21.6466 23.6079 22.3622 24.028 23.055 24.4871C23.104 24.5196 23.0811 24.5392 23.0615 24.5717C22.7021 25.135 22.4668 25.7439 22.3655 26.4049C22.1727 27.6421 22.4145 28.7948 23.1138 29.8367C23.9079 31.0154 25.019 31.7317 26.4274 31.9433C28.9829 32.3308 31.3096 30.6898 31.8717 28.2868C32.4795 25.6755 30.8717 23.0837 28.2444 22.4749C26.9666 22.1786 25.7542 22.3772 24.6236 23.0479C24.5615 23.087 24.5321 23.0837 24.4896 23.0186C24.0648 22.3772 23.6726 21.7195 23.4047 20.9966C23.2968 20.7068 23.2119 20.4138 23.189 20.1045C23.1661 19.8147 23.2347 19.5379 23.3197 19.2644C23.5386 18.5579 23.8948 17.9164 24.287 17.2978C24.3523 17.1936 24.4242 17.0959 24.4863 16.9917C24.5157 16.9462 24.5353 16.9331 24.5876 16.9657C25.1628 17.3238 25.7902 17.5518 26.4634 17.6364C27.8457 17.809 29.1005 17.4801 30.1887 16.6108C31.1593 15.8326 31.7508 14.8167 31.937 13.5892C32.3292 11.0397 30.6626 8.62053 28.094 8.1191C25.5386 7.62093 23.0517 9.19033 22.4341 11.7105C22.1106 13.0259 22.3295 14.2665 23.0354 15.4191C23.0746 15.4809 23.0648 15.5037 23.006 15.5428C22.3753 15.9563 21.7283 16.334 21.0191 16.5978C20.7152 16.7117 20.408 16.8029 20.0845 16.8224C19.7479 16.842 19.4277 16.754 19.114 16.6466C18.395 16.4024 17.7382 16.028 17.1042 15.6177C17.0389 15.5754 16.9408 15.5396 16.9212 15.4809C16.9016 15.4223 16.9866 15.3507 17.0258 15.2856C17.5552 14.3772 17.7774 13.3971 17.6761 12.3519C17.48 10.3723 16.0847 8.72472 14.1664 8.18422C11.4835 7.43209 8.7418 9.05358 8.11437 11.7626C8.03921 12.1207 8 12.4789 8 12.7557ZM10.7777 29.2864C10.7809 29.2832 10.7842 29.2767 10.7875 29.2734C10.7777 29.2604 10.7679 29.2474 10.7581 29.2343C10.2908 28.7329 10.0293 28.1403 9.97378 27.4598C9.92803 26.8998 10.0489 26.369 10.3234 25.8774C10.6045 25.3727 11.0064 24.9852 11.5227 24.7248C11.5685 24.702 11.5914 24.702 11.6044 24.7606C11.7123 25.2294 11.8659 25.6788 12.0521 26.1216C12.1012 26.2388 12.1012 26.2388 11.9999 26.3137C11.6175 26.597 11.4639 26.9714 11.5718 27.437C11.6469 27.7626 11.8659 27.9971 12.124 28.1957C12.3724 28.3878 12.6567 28.4496 12.9639 28.4073C13.0325 28.3975 13.0358 28.4203 13.039 28.4724C13.0619 28.7524 13.075 29.039 13.1305 29.3157C13.2416 29.8497 13.4573 30.3479 13.6763 30.8428C13.7024 30.9047 13.7416 30.9633 13.7939 31.0121C13.8298 31.0447 13.8756 31.061 13.9148 31.0349C14.0259 30.9665 14.1403 30.9014 14.1926 30.7712C14.2057 30.7386 14.2253 30.7191 14.2579 30.7061C14.6991 30.5205 15.0912 30.2665 15.4344 29.9344C16.1173 29.2669 16.4997 28.4529 16.5683 27.5054C16.6271 26.7012 16.4311 25.9523 15.9964 25.2685C15.9703 25.2262 15.9736 25.2034 16.0128 25.1741C16.1696 25.0601 16.3232 24.9429 16.4768 24.8224C16.5226 24.7866 16.5389 24.7964 16.5683 24.842C17.2121 25.8969 17.418 27.0268 17.1173 28.225C16.5193 30.6149 14.1403 32.0247 11.7417 31.4289C9.39864 30.8461 7.95098 28.391 8.58495 26.0695C9.07839 24.2624 10.5718 23.0056 12.4574 22.8233C13.4116 22.7321 14.3004 22.9437 15.1272 23.4289C15.1795 23.4614 15.1795 23.481 15.1468 23.5265C14.7775 24.0215 14.3756 24.4903 13.9573 24.9462C13.5946 25.3401 13.1632 25.6364 12.6959 25.8904C12.6828 25.8969 12.673 25.9067 12.6567 25.8969C12.6338 25.6462 12.6207 25.3955 12.5783 25.1448C12.4802 24.5717 12.2449 24.0475 12.0129 23.52C11.9868 23.4582 11.9508 23.4028 11.9018 23.3572C11.8659 23.3247 11.8234 23.3019 11.7809 23.3279C11.6339 23.4093 11.4999 23.507 11.4639 23.6893C11.4247 23.9042 11.4737 24.1126 11.5097 24.3243C11.5162 24.3731 11.5097 24.3926 11.4672 24.4122C11.2809 24.5066 11.1077 24.6238 10.9443 24.7541C10.0097 25.5029 9.60451 26.7663 9.9313 27.9157C10.0882 28.4464 10.3659 28.9055 10.7777 29.2864ZM10.2058 11.5379C10.2319 11.4956 10.2581 11.4533 10.2842 11.4109C10.6143 10.8639 11.0718 10.4634 11.6633 10.216C12.2417 9.97178 12.8397 9.92619 13.4508 10.0727C13.9475 10.1932 14.3788 10.4309 14.7481 10.7858C14.7775 10.8151 14.8037 10.8346 14.7481 10.8672C14.307 11.1407 13.9017 11.4565 13.5194 11.8082C13.4867 11.8375 13.4671 11.8407 13.4312 11.8114C13.1534 11.5868 12.8332 11.5379 12.5031 11.6356C12.0554 11.7723 11.7515 12.0817 11.5946 12.518C11.4966 12.7947 11.5195 13.078 11.6731 13.3352C11.7221 13.4199 11.6959 13.4394 11.624 13.4622C10.8724 13.7292 10.2744 14.2241 9.70255 14.7516C9.63719 14.8102 9.57511 14.8753 9.53262 14.9567C9.50648 15.0056 9.49014 15.0609 9.53916 15.1C9.64046 15.1879 9.74503 15.2726 9.88882 15.2758C9.91823 15.2758 9.9411 15.2856 9.96071 15.3084C10.1274 15.4972 10.3136 15.6698 10.5195 15.8196C11.1796 16.308 11.9214 16.5554 12.7384 16.5685C13.4508 16.5782 14.1109 16.3959 14.722 16.0312C14.7677 16.0052 14.7873 16.0117 14.8135 16.0507C14.9213 16.194 15.0292 16.3405 15.1435 16.4805C15.186 16.5326 15.1795 16.5554 15.1207 16.588C14.1305 17.1676 13.0717 17.3532 11.9508 17.1187C9.48687 16.601 7.97386 14.1883 8.58495 11.7593C9.16335 9.45407 11.5129 7.99212 13.8952 8.58146C16.2775 9.1708 17.6826 11.4793 17.1336 13.8562C17.0258 14.3283 16.833 14.7711 16.5748 15.1781C16.5585 15.2042 16.552 15.2433 16.503 15.2042C16.3396 15.0772 16.1729 14.9502 16.0062 14.8265C15.9703 14.8004 15.9768 14.7776 15.9964 14.7451C16.1468 14.5009 16.2579 14.2371 16.3428 13.9669C16.3918 13.8139 16.4278 13.6543 16.4474 13.4948C16.4441 13.5339 16.4278 13.5664 16.418 13.6055C16.3167 13.9897 16.1729 14.3576 15.9572 14.693C15.9245 14.7418 15.9082 14.7516 15.8592 14.7093C15.6402 14.5269 15.4246 14.3446 15.2154 14.1525C14.918 13.879 14.6239 13.599 14.4017 13.2538C14.2122 12.9608 14.0488 12.6515 13.8658 12.3552C13.8364 12.3096 13.8625 12.2998 13.8952 12.2835C14.1142 12.1859 14.3364 12.0882 14.5553 11.984C15.1501 11.7007 15.6206 11.2546 16.0945 10.8151C16.1337 10.776 16.1664 10.7304 16.186 10.6783C16.2023 10.6393 16.2056 10.6002 16.1729 10.5709C16.0356 10.4504 15.8919 10.3527 15.6925 10.3951C15.4899 10.4374 15.3167 10.5416 15.137 10.636C15.0945 10.6588 15.0684 10.6653 15.0324 10.6262C14.8821 10.4732 14.7089 10.3462 14.5226 10.2388C13.7482 9.78618 12.9214 9.66571 12.0587 9.92293C11.2025 10.1769 10.5783 10.7174 10.1927 11.5249C10.196 11.5281 10.2025 11.5314 10.2058 11.5379ZM24.1399 29.2181C23.6269 28.4236 23.4406 27.5575 23.5975 26.623C23.6726 26.1704 23.8393 25.7504 24.0778 25.3597C24.1138 25.3043 24.1334 25.2848 24.1922 25.3401C24.2706 25.415 24.3556 25.4802 24.4406 25.5485C25.0876 26.0728 25.6333 26.6849 26.0059 27.437C26.0941 27.6161 26.2019 27.7854 26.3229 27.945C26.4372 28.0947 26.5647 28.2315 26.7379 28.3096C26.813 28.3422 26.8261 28.3747 26.7934 28.4496C26.483 29.1725 26.4242 29.9376 26.4209 30.7126C26.4209 30.8168 26.4242 30.9242 26.4536 31.0251C26.4699 31.0838 26.496 31.1391 26.5712 31.1326C26.7771 31.1163 26.9568 31.0479 27.0516 30.8428C27.1039 30.7321 27.1398 30.6181 27.1725 30.4977C27.1921 30.426 27.1921 30.3349 27.2346 30.286C27.2836 30.2307 27.3816 30.26 27.4568 30.2502C28.1136 30.159 28.7018 29.9083 29.1757 29.4427C30.0809 28.5603 30.3456 27.5021 29.9861 26.2942C29.9469 26.1639 29.8946 26.0337 29.8195 25.9099C29.8162 25.923 29.8129 25.9262 29.8162 25.9262C29.8293 25.9555 29.8423 25.9881 29.8554 26.0174C30.1234 26.6946 30.143 27.3817 29.8946 28.0622C29.607 28.8534 29.0678 29.4134 28.2868 29.7423C27.9927 29.866 27.6823 29.9311 27.3653 29.9507C27.3294 29.9539 27.2999 29.9539 27.313 29.9018C27.4078 29.4199 27.447 28.9315 27.4535 28.4399C27.4535 28.4041 27.4633 28.3845 27.4993 28.3748C27.8522 28.2706 28.1038 28.0361 28.2934 27.7366C28.5809 27.2872 28.4927 26.7337 28.0908 26.3821C27.9241 26.2355 27.7313 26.1216 27.5352 26.0141C27.4797 25.9848 27.4764 25.9588 27.496 25.9034C27.5842 25.6495 27.6823 25.3955 27.7444 25.1285C27.8653 24.5913 27.8653 24.0443 27.8653 23.5005C27.8653 23.4289 27.8587 23.3572 27.8293 23.2889C27.8097 23.2433 27.7803 23.2042 27.7248 23.2107C27.5973 23.227 27.4699 23.2433 27.3686 23.3344C27.3326 23.367 27.2967 23.3768 27.2509 23.3768C26.9732 23.3703 26.7019 23.3996 26.4307 23.4549C26.0091 23.5428 25.6137 23.6991 25.2477 23.927C25.2052 23.9531 25.1856 23.9531 25.1562 23.9108C25.0615 23.7805 24.9634 23.6503 24.8621 23.5265C24.8131 23.4679 24.8229 23.4451 24.8883 23.4061C25.9438 22.7939 27.0647 22.6344 28.2476 22.9274C30.5417 23.4907 31.9926 25.8644 31.4436 28.1533C30.8978 30.4098 28.7901 31.8424 26.4928 31.5038C25.3817 31.341 24.4634 30.82 23.7511 29.9539C22.957 28.9901 22.6334 27.8766 22.7772 26.636C22.8524 25.9816 23.0746 25.3792 23.4243 24.8224C23.4504 24.7801 23.4667 24.7769 23.5027 24.8062C23.6465 24.9201 23.7935 25.0308 23.9406 25.1383C23.9798 25.1676 23.9733 25.1871 23.9537 25.2262C23.4929 26.0174 23.3426 26.864 23.4994 27.7626C23.5877 28.2738 23.7837 28.7427 24.0811 29.1692C24.0974 29.1888 24.0974 29.2311 24.1399 29.2181ZM24.2608 10.6425C24.4536 10.4048 24.6693 10.1899 24.9177 10.0076C25.7477 9.40523 26.6725 9.16428 27.6823 9.34662C28.9045 9.56803 29.7868 10.2583 30.3194 11.3816C30.3685 11.4858 30.4011 11.5965 30.4436 11.704C30.3064 11.7137 30.1789 11.7235 30.0515 11.7365C29.4469 11.8017 28.8587 11.9384 28.2836 12.1338C28.228 12.1533 28.1986 12.137 28.1659 12.098C28.0548 11.9645 27.9274 11.8472 27.7803 11.7561C27.3686 11.4988 26.849 11.5412 26.5059 11.857C26.3915 11.9612 26.3032 12.0849 26.2183 12.2119C26.0778 12.4268 25.9569 12.6547 25.8294 12.8794C25.8 12.9315 25.7673 12.951 25.7052 12.951C25.398 12.9543 25.0909 12.9478 24.7902 13.0096C24.336 13.1008 23.8948 13.2408 23.4569 13.3971C23.3851 13.4231 23.3132 13.4557 23.2511 13.5045C23.2086 13.5404 23.1759 13.5827 23.2021 13.6413C23.2968 13.8529 23.4439 13.9897 23.689 13.9962C23.8524 14.0027 24.0157 13.9897 24.1791 13.9734C24.2249 13.9702 24.2478 13.9799 24.2641 14.0255C24.3099 14.146 24.3719 14.2567 24.4373 14.3641C24.4667 14.413 24.4569 14.4358 24.4177 14.4716C24.1269 14.7158 23.8262 14.9502 23.5223 15.1814C23.4569 15.2302 23.4308 15.2302 23.3883 15.1586C22.8034 14.1785 22.604 13.1334 22.8197 12.0133C23.2837 9.63315 25.6268 8.08003 28.0156 8.55867C30.3227 9.01776 31.8521 11.196 31.4991 13.5111C31.3325 14.6083 30.8129 15.52 29.9567 16.2233C29.0058 17.008 27.9012 17.3271 26.6725 17.2099C26.0189 17.148 25.4111 16.9364 24.8491 16.5978C24.8098 16.575 24.7935 16.5587 24.8294 16.5131C25.0745 16.1842 25.3327 15.8619 25.6007 15.5526C25.6333 15.5135 25.6562 15.5103 25.702 15.533C26.3098 15.8359 26.9503 15.9303 27.6202 15.8098C28.1594 15.7121 28.6365 15.4809 29.0515 15.1228C29.0744 15.1032 29.1103 15.087 29.1201 15.0284C28.9665 15.1553 28.8195 15.2595 28.6626 15.3474C28.0679 15.6796 27.4307 15.7935 26.7575 15.6893C26.4372 15.6405 26.1333 15.533 25.849 15.3768C25.8229 15.3605 25.7739 15.354 25.8229 15.3051C26.0451 15.0739 26.2575 14.8297 26.5124 14.6279C26.849 14.3674 27.2248 14.1688 27.594 13.9571C27.7672 13.8595 27.9372 13.752 28.0908 13.6218C28.3326 13.4134 28.4633 13.1562 28.4568 12.8371C28.4568 12.7687 28.4764 12.7557 28.5385 12.7557C28.8097 12.7492 29.0842 12.7589 29.3554 12.7198C29.8685 12.645 30.3554 12.4756 30.8456 12.3096C30.9175 12.2835 30.9893 12.251 31.0482 12.1989C31.0841 12.1663 31.1168 12.1273 31.0939 12.0752C31.0351 11.9547 30.973 11.8342 30.8456 11.7723C30.8129 11.7561 30.7965 11.7333 30.7835 11.7007C30.5286 10.9518 30.0842 10.3364 29.4437 9.87409C28.6365 9.28801 27.728 9.05032 26.7346 9.17731C25.9144 9.2815 25.2052 9.62989 24.6138 10.2062C24.4798 10.3364 24.3458 10.4732 24.2478 10.636C24.251 10.636 24.2576 10.6393 24.2608 10.6425ZM15.9082 25.2587C16.1566 25.682 16.3167 26.1281 16.3886 26.6067C16.467 27.144 16.4278 27.6714 16.2579 28.1826C15.9213 29.1822 15.271 29.9051 14.3004 30.3381C14.2514 30.3609 14.2351 30.3577 14.2285 30.2991C14.1893 29.9734 14.1207 29.6544 14.0357 29.3385C13.9213 28.9218 13.7776 28.5148 13.6044 28.1208C13.5913 28.0915 13.5684 28.0687 13.6011 28.0329C13.7939 27.8115 13.941 27.5575 14.0717 27.3003C14.4932 26.4537 15.1795 25.8448 15.9082 25.2587ZM20.0028 22.4749C18.6075 22.4683 17.5715 21.3678 17.516 20.1142C17.4539 18.7109 18.5748 17.5322 19.993 17.5322C21.3851 17.5322 22.421 18.6328 22.4799 19.8831C22.5452 21.2929 21.4211 22.4683 20.0028 22.4749ZM10.2777 15.1846C10.2842 15.1781 10.2842 15.1749 10.2875 15.1749C10.977 14.8297 11.6012 14.3902 12.1665 13.8692C12.1992 13.8399 12.2221 13.8464 12.2515 13.866C12.3822 13.9441 12.5162 14.019 12.6469 14.0939C12.9671 14.2762 13.2939 14.4553 13.5717 14.6995C13.9704 15.0512 14.3168 15.4549 14.6566 15.8619C14.7024 15.9173 14.6468 15.9205 14.6207 15.9335C13.856 16.3405 13.0488 16.4643 12.1992 16.2917C11.4443 16.1354 10.8038 15.7642 10.2777 15.1846ZM26.8522 25.6137C26.7117 25.529 26.5875 25.4443 26.4699 25.3467C26.0614 24.9983 25.7183 24.5913 25.3719 24.1875C25.336 24.1452 25.3752 24.1387 25.398 24.1257C25.6889 23.9661 25.9961 23.8522 26.3196 23.7805C26.5941 23.7187 26.8719 23.6926 27.1594 23.6991C26.9764 24.3243 26.8817 24.9559 26.8522 25.6137ZM13.9442 26.7272C13.9377 26.6588 13.9802 26.6132 14.0063 26.5644C14.3788 25.9034 14.8886 25.3597 15.4572 24.868C15.5618 24.7801 15.5618 24.7834 15.65 24.8908C15.6893 24.9397 15.6893 24.9625 15.637 25.0048C15.0128 25.5127 14.4311 26.0695 13.9442 26.7272ZM13.258 13.9929C13.2612 13.9864 13.2645 13.9799 13.2678 13.9734C13.3168 13.9995 13.3691 14.0255 13.4181 14.0516C14.0619 14.4162 14.5978 14.9079 15.0814 15.4582C15.1729 15.5623 15.1697 15.5623 15.0618 15.6503C15.0161 15.6893 14.9932 15.6958 14.9475 15.6437C14.5815 15.1977 14.186 14.7776 13.7514 14.3967C13.5946 14.2534 13.4279 14.1232 13.258 13.9929ZM26.7509 26.0207C26.7183 26.0369 26.6954 26.0174 26.6725 26.0044C26.581 25.9523 26.4862 25.9034 26.398 25.8481C25.8457 25.5029 25.3752 25.0699 24.9438 24.5848C24.8425 24.4708 24.8262 24.5066 24.9667 24.3959C25.0124 24.3601 25.0353 24.3601 25.0778 24.4089C25.5778 25.0048 26.1202 25.5583 26.7509 26.0207ZM23.6596 15.5396C23.6792 15.5233 23.6955 15.5102 23.7151 15.4972C24.0157 15.2758 24.3164 15.0512 24.6007 14.8037C24.6922 14.7223 24.6889 14.7288 24.7706 14.8102C24.8294 14.8688 24.8098 14.8981 24.7608 14.9437C24.4798 15.2009 24.1824 15.4354 23.8687 15.6535C23.8458 15.6698 23.8197 15.7186 23.787 15.6861C23.738 15.6437 23.702 15.5916 23.6596 15.5396ZM15.9082 16.5847C16.1337 16.8582 16.7513 18.1379 16.8069 18.4602C16.7807 18.4179 16.7644 18.3951 16.7513 18.3723C16.467 17.8578 16.1696 17.3532 15.8494 16.8615C15.7448 16.6987 15.7448 16.6987 15.9082 16.5847ZM23.2021 21.5664C23.2086 21.5762 23.2151 21.5795 23.2151 21.5827C23.5354 22.1525 23.8589 22.7191 24.2249 23.2628C24.2445 23.2921 24.238 23.3051 24.2151 23.3214C24.1922 23.3377 24.1661 23.3507 24.1497 23.3735C24.1007 23.4289 24.0713 23.4126 24.0354 23.354C23.7053 22.807 23.421 22.2404 23.2086 21.6381C23.2021 21.6185 23.189 21.599 23.2021 21.5664ZM18.4375 23.1879C18.4212 23.1977 18.4081 23.2075 18.395 23.214C17.8558 23.507 17.3265 23.8163 16.8134 24.1484C16.699 24.2233 16.7023 24.2233 16.6141 24.1224C16.5748 24.0768 16.5716 24.0605 16.6271 24.028C17.1827 23.6926 17.7611 23.4093 18.3722 23.1944C18.3918 23.1847 18.4114 23.1749 18.4375 23.1879ZM23.4112 15.9498C23.0289 16.2201 21.7675 16.8159 21.5649 16.8127C21.6269 16.7768 21.676 16.7475 21.725 16.7215C22.2054 16.461 22.6727 16.181 23.1334 15.8879C23.2968 15.7838 23.2968 15.7838 23.4079 15.94C23.4112 15.9466 23.4112 15.9498 23.4112 15.9498ZM25.8817 13.625C25.8654 13.6543 25.8555 13.6673 25.849 13.6804C25.6268 14.0223 25.3654 14.3348 25.0843 14.6311C25.0288 14.6897 25.0059 14.6832 24.9569 14.6246C24.9046 14.5595 24.9046 14.5269 24.97 14.4683C25.2347 14.2339 25.4797 13.9734 25.7118 13.7064C25.7542 13.6543 25.8033 13.6348 25.8817 13.625ZM16.1762 24.3178C16.199 24.3145 16.2056 24.3308 16.2154 24.3438C16.2415 24.3731 16.2644 24.4057 16.2905 24.4317C16.3232 24.4675 16.32 24.4871 16.2807 24.5131C16.1468 24.6108 16.0128 24.7085 15.8821 24.8094C15.7513 24.9104 15.7513 24.9104 15.6468 24.7834C15.6174 24.7476 15.6239 24.7345 15.6566 24.7085C15.8134 24.5782 15.9834 24.461 16.1468 24.3406C16.1533 24.334 16.1664 24.3243 16.1762 24.3178ZM15.0782 15.7903C15.1207 15.7545 15.1631 15.7219 15.1991 15.6828C15.2318 15.6503 15.2546 15.6503 15.284 15.6893C15.3821 15.8196 15.4834 15.9498 15.5782 16.0801C15.6697 16.2038 15.6697 16.2038 15.5455 16.2982C15.5063 16.3275 15.4867 16.3308 15.454 16.2884C15.3429 16.1354 15.2252 15.9824 15.1108 15.8326C15.101 15.8196 15.0912 15.8065 15.0782 15.7903ZM24.885 24.1712C24.8491 24.2005 24.8066 24.2266 24.7739 24.2592C24.7249 24.3145 24.6955 24.2917 24.6628 24.2461C24.5844 24.1387 24.5027 24.0345 24.4242 23.927C24.3197 23.787 24.3229 23.7903 24.4634 23.6893C24.4994 23.6666 24.5125 23.6731 24.5353 23.7024C24.6497 23.8619 24.7674 24.0182 24.885 24.1712ZM24.568 13.9311C24.7477 13.8985 24.9275 13.8627 25.1072 13.8301C24.9928 13.9571 24.8719 14.0711 24.751 14.1851C24.7379 14.1981 24.7216 14.2078 24.7053 14.2241C24.6497 14.1264 24.6007 14.0353 24.568 13.9311Z" fill="#02E602"/>
<path d="M23.9902 11C23.9705 11.0197 23.9509 11.0426 23.9312 11.0622H23.9279C23.9836 11.0884 23.9738 11.0229 24 11.0098C24 11.0066 23.9934 11.0033 23.9902 11Z" fill="#02E602"/>
<path d="M24 11.0167C23.9967 11.0004 23.987 10.9939 23.9739 11.0069C23.9707 11.0102 23.9674 11.02 23.9707 11.02C23.9804 11.0363 23.987 11.0069 24 11.0167Z" fill="#02E602"/>
<path d="M23.992 11.0459C23.9821 11.0328 24.0214 11.0098 23.9821 11C23.9821 11 23.9854 11 23.9821 11C23.9887 11.0164 23.9559 11.0393 23.992 11.0459C23.9952 11.0459 23.992 11.0459 23.992 11.0459Z" fill="#02E602"/>
<path d="M28.9902 15C28.9837 15.0065 28.9707 15.013 28.9804 15.0228C28.9935 15.0359 28.9967 15.0196 29 15.0098C28.9967 15.0098 28.9935 15.0065 28.9902 15Z" fill="#02E602"/>
<path d="M28.9902 15C28.9837 15.0065 28.9804 15.0098 28.9739 15.0163C28.9772 15.0196 28.9804 15.0228 28.9837 15.0293C28.9935 15.0293 29 15.0228 29 15.013C28.9967 15.0065 28.9935 15.0033 28.9902 15Z" fill="#02E602"/>
<path d="M29 15.007C28.987 14.9907 28.9804 15.007 28.9739 15.0135C28.9772 15.0168 28.9804 15.02 28.9837 15.0233C28.9935 15.0233 28.9967 15.0168 29 15.007C28.9967 15.0038 29 15.007 29 15.007Z" fill="#02E602"/>
<path d="M28.9804 15.0174C28.9935 15.0174 28.9967 15.0142 28.9967 15.0011H29C28.9837 14.9979 28.9772 15.0011 28.9804 15.0174Z" fill="#02E602"/>
<path d="M29 15.0014C28.9935 15.0014 28.987 15.0047 28.9804 15.0047C28.9837 15.008 28.9837 15.0145 28.987 15.0178H28.9837C28.9935 15.0178 29 15.0112 29 15.0014C28.9967 14.9982 29 15.0014 29 15.0014Z" fill="#02E602"/>
<path d="M28.987 15.0163C28.9902 15.013 28.9935 15.0065 29 15.0033C28.9967 15.0033 28.9935 15 28.9935 15C28.9804 15.0065 28.9804 15.013 28.987 15.0163C28.987 15.0196 28.987 15.0163 28.987 15.0163Z" fill="#02E602"/>
<path d="M28.9981 15L28.994 15.0042C28.9981 15.0042 28.9981 15 28.9981 15C29.0023 15 28.9981 15 28.9981 15Z" fill="#02E602"/>
<path d="M29 15.0017C28.9962 14.9979 28.9962 15.0017 29 15.0017C28.9962 15.0017 29 15.0017 29 15.0017Z" fill="#02E602"/>
<path d="M23.989 29C23.9653 29.0068 23.9822 29.0203 23.9856 29.0305C23.9856 29.0338 23.9991 29.0338 23.9991 29.0338C24.0025 29.0203 23.9957 29.0102 23.989 29C23.9856 29.0034 23.989 29 23.989 29Z" fill="#02E602"/>
<path d="M9.98693 12C9.96078 12.0586 9.93791 12.1205 9.91177 12.1791C9.95098 12.127 9.98039 12.0716 10 12.0098C9.99673 12.0065 9.9902 12.0033 9.98693 12Z" fill="#02E602"/>
<path d="M9.9869 12C9.98035 12.0131 9.97707 12.0229 9.97052 12.036C9.9738 12.0393 9.98035 12.0426 9.98362 12.0459C9.99672 12.0393 10 12.0262 10 12.0131C9.99672 12.0066 9.99017 12.0033 9.9869 12Z" fill="#02E602"/>
<path d="M9.99674 12C9.99674 12.0033 9.99348 12.0098 9.99348 12.013C9.99348 12.0163 9.99674 12.0163 9.99674 12.0196C9.99674 12.0163 10 12.0098 10 12.0065C10 12.0033 9.99674 12 9.99674 12Z" fill="#02E602"/>
<path d="M9.98362 12C9.98034 12.0098 9.97379 12.0197 9.97051 12.0328C9.97379 12.036 9.98034 12.0426 9.98362 12.0459C9.99672 12.0393 10 12.0262 10 12.0131C9.99672 12.0066 9.99017 12.0033 9.98362 12Z" fill="#02E602"/>
<path d="M10.941 29.0098C10.9574 29.0262 10.9705 29.0491 11 29.0491C10.9902 29.0229 10.9738 29.0098 10.9509 29C10.9509 29.0033 10.9443 29.0066 10.941 29.0098Z" fill="#02E602"/>
<path d="M10.9739 29.013C10.9804 29.0196 10.9837 29.0228 10.9902 29.0293C10.9935 29.0261 10.9967 29.0196 11 29.0163C10.9935 29.0098 10.9902 29.0065 10.9837 29C10.9837 29.0033 10.9804 29.0065 10.9739 29.013Z" fill="#02E602"/>
<path d="M10.9739 29.013C10.9804 29.0163 10.9837 29.0228 10.9902 29.0261C10.9935 29.0228 10.9967 29.0196 11 29.0163C11 29.0065 10.9935 29 10.9837 29C10.9772 29.0065 10.9739 29.0098 10.9739 29.013Z" fill="#02E602"/>
<path d="M19.9951 22C21.1484 21.9933 21.9933 21.0579 22 20.0152C22.0067 18.9657 21.1685 18.0136 20.0085 18.0001C18.9189 17.9867 18.0137 18.8819 18.0002 19.9816C17.9835 21.0378 18.8284 21.9899 19.9951 22ZM19.9984 21.4401C19.1971 21.4401 18.5501 20.7964 18.5534 19.9984C18.5534 19.2105 19.2005 18.5701 19.9884 18.5601C20.7394 18.55 21.4401 19.1535 21.4468 19.9984C21.4468 20.7964 20.7964 21.4401 19.9984 21.4401Z" fill="#02E602"/>
<path d="M19 19.9986C19 20.5512 19.4473 20.9972 19.9986 21C20.5527 21 21 20.554 21 20.0014C21 19.4488 20.5556 19.0028 20.0014 19C19.4501 18.9972 19 19.446 19 19.9986ZM19.9367 19.3843C19.9367 19.3591 19.9367 19.331 19.9367 19.3058C19.9451 19.1627 19.9761 19.1375 20.1195 19.1543C20.1421 19.1571 20.1617 19.1627 20.1814 19.1655C20.5527 19.2384 20.8481 19.5863 20.8565 19.9593C20.8565 20.007 20.8481 20.0295 20.7975 20.0435C20.3643 20.1641 19.9311 19.8359 19.9367 19.3843ZM19.2138 20.3324C19.346 20.2903 19.4585 20.3184 19.557 20.3997C19.6639 20.4895 19.692 20.6073 19.6751 20.7419C19.6695 20.7784 19.6554 20.7784 19.6273 20.7644C19.4388 20.6718 19.3038 20.5288 19.2138 20.3324ZM19.9339 19.979C19.9339 19.9565 19.9592 19.9313 19.9986 19.9313C20.0352 19.9313 20.0633 19.9509 20.0661 19.9958C20.0661 20.0407 20.0408 20.0631 20.0042 20.0659C19.9648 20.0659 19.9367 20.0435 19.9339 19.979Z" fill="#02E602"/>
</svg>
