<svg width="33" height="33" viewBox="0 0 33 33" fill="none" xmlns="http://www.w3.org/2000/svg">
<circle cx="16.5" cy="16.5" r="15.5" stroke="#01B601" stroke-width="2"/>
<path d="M16.4983 14.3324C15.3047 14.3324 14.3307 15.3064 14.3307 16.5C14.3307 17.6936 15.3047 18.6676 16.4983 18.6676C17.6918 18.6676 18.6658 17.6936 18.6658 16.5C18.6658 15.3064 17.6918 14.3324 16.4983 14.3324ZM22.9993 16.5C22.9993 15.6024 23.0074 14.7129 22.957 13.8169C22.9066 12.7762 22.6692 11.8526 21.9082 11.0916C21.1456 10.329 20.2236 10.0932 19.1829 10.0428C18.2853 9.99235 17.3958 10.0005 16.4999 10.0005C15.6023 10.0005 14.7128 9.99235 13.8169 10.0428C12.7762 10.0932 11.8526 10.3306 11.0916 11.0916C10.3289 11.8542 10.0932 12.7762 10.0428 13.8169C9.99235 14.7145 10.0005 15.604 10.0005 16.5C10.0005 17.396 9.99235 18.2871 10.0428 19.1831C10.0932 20.2238 10.3306 21.1474 11.0916 21.9084C11.8542 22.671 12.7762 22.9068 13.8169 22.9572C14.7145 23.0076 15.6039 22.9995 16.4999 22.9995C17.3975 22.9995 18.2869 23.0076 19.1829 22.9572C20.2236 22.9068 21.1472 22.6694 21.9082 21.9084C22.6708 21.1458 22.9066 20.2238 22.957 19.1831C23.009 18.2871 22.9993 17.3976 22.9993 16.5ZM16.4983 19.8351C14.6527 19.8351 13.1632 18.3456 13.1632 16.5C13.1632 14.6544 14.6527 13.1649 16.4983 13.1649C18.3438 13.1649 19.8333 14.6544 19.8333 16.5C19.8333 18.3456 18.3438 19.8351 16.4983 19.8351ZM19.9699 13.8072C19.539 13.8072 19.191 13.4592 19.191 13.0283C19.191 12.5974 19.539 12.2494 19.9699 12.2494C20.4008 12.2494 20.7488 12.5974 20.7488 13.0283C20.7489 13.1306 20.7289 13.2319 20.6898 13.3265C20.6507 13.4211 20.5933 13.507 20.521 13.5793C20.4486 13.6517 20.3627 13.7091 20.2681 13.7482C20.1736 13.7873 20.0722 13.8073 19.9699 13.8072Z" fill="white"/>
</svg>
