<svg width="40" height="40" viewBox="0 0 40 40" fill="none" xmlns="http://www.w3.org/2000/svg">
<circle cx="20" cy="20" r="19" fill="#1E1F20" fill-opacity="0.95" stroke="white" stroke-width="2"/>
<path fill-rule="evenodd" clip-rule="evenodd" d="M13.4563 23.28C13.5232 23.1931 13.61 23.1225 13.7098 23.0739C13.8096 23.0253 13.9197 23 14.0313 23H17.625C17.8156 23 17.9984 23.0737 18.1332 23.205C18.268 23.3363 18.3438 23.5143 18.3438 23.7C18.3438 23.8857 18.268 24.0637 18.1332 24.195C17.9984 24.3263 17.8156 24.4 17.625 24.4H14.3906L11.1563 28.6H29.8438L26.6094 24.4H23.375C23.1844 24.4 23.0016 24.3263 22.8668 24.195C22.732 24.0637 22.6562 23.8857 22.6562 23.7C22.6562 23.5143 22.732 23.3363 22.8668 23.205C23.0016 23.0737 23.1844 23 23.375 23H26.9688C27.0803 23 27.1904 23.0253 27.2902 23.0739C27.39 23.1225 27.4768 23.1931 27.5437 23.28L31.8562 28.88C31.9363 28.984 31.9851 29.1077 31.9971 29.2371C32.0091 29.3666 31.9838 29.4968 31.9241 29.613C31.8644 29.7293 31.7727 29.8271 31.6591 29.8955C31.5456 29.9638 31.4147 30 31.2812 30H9.71875C9.58527 30 9.45443 29.9638 9.34088 29.8955C9.22734 29.8271 9.13558 29.7293 9.07588 29.613C9.01619 29.4968 8.99092 29.3666 9.0029 29.2371C9.01489 29.1077 9.06366 28.984 9.14375 28.88L13.4563 23.28Z" fill="#02E602"/>
<path fill-rule="evenodd" clip-rule="evenodd" d="M21 8.42808C20.4091 8.42808 19.8239 8.53894 19.2779 8.75432C18.732 8.9697 18.2359 9.28539 17.818 9.68337C17.4002 10.0813 17.0687 10.5538 16.8425 11.0738C16.6164 11.5938 16.5 12.1511 16.5 12.7139C16.5 13.2767 16.6164 13.834 16.8425 14.354C17.0687 14.874 17.4002 15.3465 17.818 15.7444C18.2359 16.1424 18.732 16.4581 19.2779 16.6735C19.8239 16.8889 20.4091 16.9997 21 16.9997C22.1935 16.9997 23.3381 16.5482 24.182 15.7444C25.0259 14.9407 25.5 13.8506 25.5 12.7139C25.5 11.5772 25.0259 10.4871 24.182 9.68337C23.3381 8.87962 22.1935 8.42808 21 8.42808ZM15 12.7139C15.0001 11.6142 15.3334 10.5379 15.9598 9.6141C16.5863 8.69032 17.4793 7.95831 18.5318 7.50592C19.5842 7.05353 20.7513 6.89997 21.8931 7.06367C23.0349 7.22736 24.1029 7.70136 24.9688 8.42879C25.8348 9.15621 26.462 10.1062 26.7751 11.1647C27.0883 12.2231 27.0741 13.3452 26.7343 14.3962C26.3945 15.4472 25.7434 16.3825 24.8593 17.0899C23.9752 17.7972 22.8956 18.2466 21.75 18.3841V26.2857C21.75 26.4751 21.671 26.6568 21.5303 26.7908C21.3897 26.9247 21.1989 27 21 27C20.8011 27 20.6103 26.9247 20.4697 26.7908C20.329 26.6568 20.25 26.4751 20.25 26.2857V18.3855C18.7994 18.2114 17.4655 17.5389 16.4988 16.4943C15.5321 15.4497 14.9991 14.1049 15 12.7125V12.7139Z" fill="#02E602"/>
</svg>
