<svg width="33" height="33" viewBox="0 0 33 33" fill="none" xmlns="http://www.w3.org/2000/svg">
<path fill-rule="evenodd" clip-rule="evenodd" d="M24.6101 12.6771C24.7276 12.2871 24.6101 12 24.047 12H22.1876C21.7145 12 21.4963 12.2479 21.378 12.5214C21.378 12.5214 20.4324 14.8043 19.093 16.2871C18.6595 16.7171 18.4626 16.8536 18.226 16.8536C18.1077 16.8536 17.9299 16.7171 17.9299 16.3264V12.6771C17.9299 12.2086 17.7996 12 17.4058 12H14.4818C14.1865 12 14.0087 12.2171 14.0087 12.4236C14.0087 12.8671 14.6787 12.97 14.7474 14.2186V16.9314C14.7474 17.5264 14.6391 17.6343 14.4025 17.6343C13.7721 17.6343 12.2386 15.3407 11.3284 12.7164C11.152 12.2057 10.9735 12 10.4982 12H8.63749C8.10625 12 8 12.2479 8 12.5214C8 13.0086 8.6304 15.4286 10.936 18.6293C12.473 20.815 14.6369 22 16.6082 22C17.7904 22 17.9363 21.7371 17.9363 21.2836V19.6314C17.9363 19.105 18.0482 19 18.4229 19C18.6992 19 19.1716 19.1371 20.2752 20.1907C21.536 21.44 21.7435 22 22.4532 22H24.3126C24.8438 22 25.1101 21.7371 24.9571 21.2171C24.7886 20.7 24.1865 19.9493 23.3882 19.0586C22.9547 18.5514 22.3045 18.005 22.1069 17.7314C21.8313 17.3807 21.91 17.2243 22.1069 16.9121C22.1069 16.9121 24.3735 13.7507 24.6094 12.6771H24.6101Z" fill="white"/>
<circle cx="16.5" cy="16.5" r="15.5" stroke="#01B601" stroke-width="2"/>
</svg>
