<svg width="40" height="40" viewBox="0 0 40 40" fill="none" xmlns="http://www.w3.org/2000/svg">
<circle cx="20" cy="20" r="19" fill="#1E1F20" fill-opacity="0.95" stroke="white" stroke-width="2"/>
<path d="M34.9854 16.8824C34.8032 17.0998 34.672 17.404 34.3586 17.4402C34.0307 17.4765 34.0379 17.6648 34.0525 17.8966C34.0598 18.056 34.0598 18.2226 34.0525 18.382C34.0452 18.9543 33.6735 19.331 33.0977 19.3527C32.8718 19.36 32.6386 19.3672 32.4126 19.3527C32.245 19.3455 32.1794 19.3817 32.1794 19.5701C32.1867 20.664 32.1867 21.7579 32.1794 22.859C32.1794 23.0184 32.2159 23.0981 32.3908 23.0691C32.4782 23.0546 32.573 23.0619 32.6604 23.0691C32.9228 23.0908 33.1123 23.2792 33.1123 23.5255C33.1123 23.7501 32.9374 23.9819 32.6969 23.9819C32.0409 23.9964 31.385 23.9964 30.729 23.9819C30.4739 23.9746 30.3063 23.7501 30.3209 23.4965C30.3355 23.2575 30.5031 23.0908 30.7655 23.0691C31.2538 23.0329 31.2538 23.0329 31.2538 22.5403C31.2538 21.5695 31.2465 20.606 31.2611 19.6353C31.2611 19.4035 31.1882 19.3383 30.9695 19.36C30.7582 19.3817 30.5541 19.3672 30.3427 19.36C29.7597 19.3383 29.4026 18.9688 29.388 18.3892C29.3734 17.8169 29.3734 17.8169 28.7976 17.9546C27.1286 18.3458 25.5835 19.0123 24.1039 19.8671C23.7687 20.0627 23.6958 20.3742 23.5209 20.6567C23.8926 20.8958 24.2205 21.1711 24.4902 21.5188C24.738 21.8303 24.7963 22.178 24.6287 22.533C24.4538 22.8952 24.1477 23.0619 23.7468 23.0619C21.9101 23.0619 20.0662 23.0619 18.2295 23.0619C17.8287 23.0619 17.5225 22.888 17.3549 22.5258C17.1946 22.178 17.2456 21.8376 17.4861 21.5333C17.7266 21.2218 18.0109 20.9537 18.3388 20.7437C18.4482 20.6785 18.4336 20.635 18.4044 20.5191C18.2951 20.1206 17.989 19.9395 17.661 19.7512C16.1596 18.8746 14.5635 18.2516 12.8653 17.8749C12.6466 17.8242 12.5665 17.8749 12.5956 18.0995C12.6102 18.1936 12.6029 18.2951 12.5956 18.3965C12.581 18.9688 12.2166 19.3383 11.6336 19.36C11.3858 19.3672 11.138 19.3672 10.8974 19.36C10.7663 19.3527 10.7298 19.4035 10.7298 19.5339C10.7371 20.6567 10.7371 21.7796 10.7298 22.9025C10.7298 23.0256 10.7663 23.0836 10.8974 23.0763C11.0068 23.0691 11.1161 23.0691 11.2254 23.0763C11.4805 23.0981 11.6481 23.2647 11.6627 23.511C11.6773 23.7646 11.5097 23.9819 11.2473 23.9891C10.5986 24.0036 9.95725 24.0036 9.30858 23.9891C9.05349 23.9819 8.86399 23.7573 8.87128 23.5183C8.87857 23.2719 9.06807 23.0908 9.33045 23.0691C9.80419 23.0329 9.80419 23.0329 9.80419 22.5548C9.80419 21.5695 9.7969 20.5843 9.81148 19.5918C9.81148 19.4035 9.76775 19.3383 9.57096 19.3527C9.34502 19.3672 9.11909 19.3672 8.88586 19.3527C8.31008 19.3238 7.94566 18.9471 7.93837 18.3748C7.93837 18.2733 7.93109 18.1719 7.93837 18.0777C7.96753 17.7517 7.97482 17.4837 7.52294 17.3823C7.18039 17.3026 7.02004 16.9621 7.00547 16.5926C6.99818 16.3029 6.99818 16.0131 7.00547 15.7233C7.00547 15.0931 7.39175 14.7164 8.03312 14.7091C8.5506 14.7091 9.07536 14.6946 9.59283 14.7164C9.83334 14.7236 9.94267 14.6729 9.99369 14.4193C10.0811 13.9702 10.2051 13.521 10.329 13.0791C10.38 12.898 10.3362 12.8546 10.1467 12.8546C9.27214 12.8618 8.39754 12.8618 7.52294 12.8546C7.21683 12.8546 7.02004 12.6734 7.01276 12.4054C7.00547 12.1301 7.20954 11.9418 7.53023 11.9273C7.59582 11.9273 7.65413 11.9273 7.71972 11.9273C8.6089 11.9273 9.50537 11.9273 10.3945 11.9273C10.5622 11.9273 10.6715 11.9055 10.7663 11.7389C10.9485 11.4274 11.24 11.2173 11.5825 11.0942C11.6409 11.0724 11.7356 11.0797 11.7648 11C11.9834 11 12.2021 11 12.4207 11C12.8653 11.1449 13.2807 11.326 13.5212 11.7534C13.6087 11.9055 13.718 11.9273 13.8711 11.9273C14.7748 11.92 15.6713 11.9273 16.5751 11.9273C17.0415 11.9273 17.2675 12.0794 17.2747 12.3909C17.2747 12.7024 17.0488 12.8546 16.5824 12.8546C15.7005 12.8546 14.8186 12.8546 13.9075 12.8546C14.0533 13.4558 14.1991 14.0354 14.3448 14.6077C14.374 14.7381 14.4833 14.7019 14.5635 14.7019C15.7442 14.7019 16.9322 14.7019 18.1129 14.7019C18.2368 14.7019 18.3024 14.6656 18.3607 14.5497C18.6231 14.0354 19.0677 13.7818 19.6362 13.7746C20.5399 13.7673 21.4364 13.7673 22.3401 13.7746C22.9232 13.7818 23.3751 14.0354 23.6448 14.557C23.6958 14.6584 23.7468 14.7019 23.8707 14.7019C25.0733 14.6946 26.2759 14.7019 27.4784 14.7019C27.5586 14.7019 27.6388 14.7091 27.6679 14.6004C27.8064 14.0209 27.9522 13.4486 28.0979 12.8546C27.2233 12.8546 26.3779 12.8546 25.5324 12.8546C25.4304 12.8546 25.3357 12.8546 25.2336 12.8546C24.9421 12.8473 24.7307 12.6517 24.738 12.3909C24.738 12.1301 24.9494 11.9345 25.2482 11.9345C26.1519 11.9273 27.0484 11.92 27.9522 11.9418C28.2364 11.949 28.4405 11.8983 28.5935 11.6303C28.7102 11.4129 28.9361 11.2898 29.1547 11.1739C29.2641 11.1159 29.4026 11.1232 29.4827 11.0145C29.7014 11.0145 29.92 11.0145 30.1387 11.0145C30.5978 11.1449 31.0133 11.3477 31.2611 11.7751C31.3485 11.92 31.4433 11.9418 31.5891 11.9418C32.5147 11.9345 33.4476 11.949 34.3732 11.9345C34.6574 11.9273 34.8615 12.0142 35 12.2605C35 12.3547 35 12.4416 35 12.5358C34.8688 12.7894 34.6647 12.8763 34.3805 12.869C33.5569 12.8546 32.726 12.8763 31.9025 12.8618C31.6619 12.8546 31.6401 12.9198 31.6984 13.1371C31.8296 13.5935 31.9389 14.0644 32.0482 14.528C32.0847 14.6801 32.143 14.7308 32.3033 14.7308C32.7843 14.7164 33.2654 14.7453 33.7464 14.7236C34.3295 14.6874 34.7668 14.8685 35 15.4263C34.9854 15.9044 34.9854 16.397 34.9854 16.8824ZM19.126 17.4837C19.126 18.2371 19.126 18.9833 19.126 19.7367C19.126 20.1134 19.2936 20.2873 19.6726 20.2873C20.5472 20.2945 21.4218 20.2945 22.2964 20.2873C22.6827 20.2873 22.843 20.1134 22.843 19.7367C22.843 18.2516 22.843 16.7665 22.843 15.2814C22.843 14.8902 22.6754 14.7164 22.2818 14.7164C21.4145 14.7164 20.5545 14.7164 19.6872 14.7164C19.2936 14.7164 19.126 14.883 19.126 15.2814C19.126 16.0203 19.126 16.752 19.126 17.4837ZM23.7832 18.9688C23.8998 18.9108 23.98 18.8746 24.0529 18.8312C24.9712 18.3096 25.926 17.8749 26.9245 17.5272C29.0163 16.7882 31.1809 16.5274 33.3893 16.5709C33.6006 16.5782 33.8849 16.6723 34.0161 16.5274C34.1181 16.4043 34.0379 16.129 34.0598 15.9262C34.0817 15.7016 34.0161 15.6364 33.7828 15.6436C32.1138 15.6581 30.4521 15.6509 28.783 15.6509C27.2015 15.6509 25.6126 15.6509 24.031 15.6509C23.878 15.6509 23.7832 15.6581 23.7832 15.861C23.7905 16.8752 23.7832 17.8966 23.7832 18.9688ZM18.2004 18.9833C18.2004 17.9329 18.1931 16.9331 18.2077 15.9407C18.2077 15.7016 18.1566 15.6436 17.9088 15.6436C14.8186 15.6509 11.7356 15.6509 8.64534 15.6509C7.88736 15.6509 7.89464 15.6509 7.9238 16.4115C7.93109 16.5419 7.96753 16.5782 8.09143 16.5782C8.49958 16.5709 8.90772 16.5782 9.32316 16.5782C11.7575 16.5782 14.0897 17.049 16.32 18.027C16.9541 18.2951 17.559 18.6138 18.2004 18.9833ZM28.5863 14.7164C29.4026 14.7164 30.1824 14.7164 30.9695 14.7164C31.108 14.7164 31.1153 14.6656 31.0862 14.5497C30.9112 13.8688 30.7436 13.1806 30.5614 12.4996C30.4666 12.1446 30.1897 11.9345 29.8544 11.9273C29.5192 11.9273 29.2349 12.1446 29.1402 12.4923C28.958 13.2313 28.7758 13.9557 28.5863 14.7164ZM13.3973 14.7164C13.2078 13.9629 13.0329 13.2313 12.8434 12.5068C12.7487 12.1519 12.4717 11.9418 12.1365 11.9418C11.8012 11.9418 11.5242 12.1519 11.4295 12.5068C11.2473 13.1878 11.0869 13.876 10.9047 14.557C10.8683 14.7019 10.912 14.7236 11.0432 14.7236C11.8085 14.7164 12.581 14.7164 13.3973 14.7164ZM18.1931 22.1273C20.0808 22.1273 21.9174 22.1273 23.7978 22.1273C23.3824 21.584 22.8941 21.2363 22.2308 21.2218C21.4291 21.2073 20.6274 21.2145 19.833 21.2218C19.1333 21.2218 18.6304 21.5623 18.1931 22.1273ZM10.2488 18.4327C10.533 18.4327 10.81 18.4327 11.0942 18.4327C11.6846 18.4327 11.6773 18.4327 11.6627 17.8459C11.6627 17.6938 11.6117 17.6576 11.4586 17.6358C10.8318 17.5561 10.2123 17.5272 9.58554 17.5054C8.84213 17.4837 8.84942 17.4837 8.85671 18.2299C8.85671 18.4037 8.91501 18.44 9.07536 18.44C9.46164 18.4255 9.85521 18.4327 10.2488 18.4327ZM31.7202 18.4327C31.9535 18.4327 32.194 18.44 32.4272 18.4327C32.6532 18.4255 32.9593 18.5341 33.0759 18.382C33.1852 18.2444 33.0977 17.9473 33.1196 17.7228C33.1342 17.5489 33.0832 17.4909 32.8937 17.4909C32.2231 17.5054 31.5453 17.5199 30.8748 17.5851C30.2917 17.6358 30.299 17.6358 30.3063 18.2299C30.3063 18.382 30.35 18.4327 30.5031 18.4327C30.9185 18.4255 31.3194 18.4327 31.7202 18.4327Z" fill="#02E602"/>
<path d="M24.6546 25.9995C24.3974 25.981 23.9301 24.8259 24.0088 24.4008C24.0823 24.0034 24.3869 23.8556 24.5549 24.1698C24.7071 24.4655 24.8437 24.7982 24.9592 25.1493C25.0852 25.5374 24.9014 26.018 24.6546 25.9995Z" fill="#02E602"/>
<path d="M17 24.6783C17 24.7245 16.9791 24.8446 16.9372 24.9462C16.8274 25.2141 16.7228 25.4912 16.6025 25.7498C16.477 26.0362 16.2887 26.0731 16.1371 25.8791C15.9906 25.6852 15.954 25.3434 16.0639 25.057C16.1737 24.7707 16.2887 24.4936 16.409 24.2257C16.5032 24.0133 16.6339 23.9486 16.7751 24.041C16.9163 24.1334 16.9895 24.3181 17 24.6783Z" fill="#02E602"/>
<path d="M13.6423 28.0001C13.9044 27.9906 14.0862 28.4978 13.9578 28.8901C13.8509 29.2155 13.7225 29.5218 13.5781 29.8089C13.4658 30.0385 13.3054 30.0577 13.161 29.8854C13.0165 29.7132 12.9577 29.4548 13.0326 29.1677C13.1342 28.7944 13.284 28.4691 13.4391 28.1533C13.4925 28.048 13.5728 28.0193 13.6423 28.0001Z" fill="#02E602"/>
<path d="M26.3394 26.0001C26.6048 25.9905 27.0762 26.5555 26.9895 26.7825C26.9082 27.0046 26.5994 27.0771 26.4206 26.9032C26.2744 26.7631 26.1498 26.6038 26.0414 26.4348C25.9168 26.2416 26.0902 26.005 26.3394 26.0001Z" fill="#02E602"/>
<path d="M28.3439 28C28.6052 28 29.0678 28.5631 28.9916 28.7815C28.9154 28.9999 28.5997 29.0776 28.4201 28.9077C28.2786 28.7718 28.1534 28.6164 28.0445 28.4563C27.9139 28.2573 28.088 28.0049 28.3439 28Z" fill="#02E602"/>
<path d="M15.354 26.9993C15.0845 26.9993 14.9121 26.7519 15.0468 26.5481C15.1492 26.388 15.2785 26.2376 15.4132 26.0969C15.5264 25.9805 15.6881 25.9708 15.8336 26.0581C15.979 26.1406 16.0437 26.2716 15.9683 26.4171C15.8713 26.6112 15.7204 26.7761 15.5587 26.9314C15.5102 26.9847 15.4294 27.0041 15.354 26.9993Z" fill="#02E602"/>
<path d="M21.9981 29.5105C21.9981 29.5365 21.9981 29.5626 21.9981 29.5886C21.9903 29.849 21.7973 30 21.4961 30C21.195 30 21.0097 29.8438 21.0019 29.5834C21.0019 29.4949 20.9942 29.4011 21.0097 29.3126C21.0405 29.1251 21.249 28.9949 21.5039 29.0002C21.7587 29.0002 21.9595 29.1303 21.9903 29.323C22.0058 29.3803 21.9981 29.4428 21.9981 29.5105Z" fill="#02E602"/>
<path d="M21.9931 24.5026C22.0009 24.8377 21.8457 25 21.5043 25C21.1707 25 21 24.8377 21 24.5079C21 24.445 21 24.377 21.0078 24.3141C21.0388 24.1204 21.2405 24 21.5121 24C21.7681 24.0052 21.9543 24.1204 21.9931 24.3089C22.0086 24.3717 21.9931 24.4398 21.9931 24.5026Z" fill="#02E602"/>
<path d="M18.9997 29.3954C18.9644 29.4996 18.9361 29.6507 18.8653 29.7914C18.7946 29.9476 18.554 30.031 18.3489 29.9893C18.1154 29.9424 17.981 29.8226 18.0022 29.6455C18.0163 29.5048 18.0659 29.3642 18.1295 29.2287C18.2003 29.062 18.4125 28.9786 18.6248 29.0047C18.8653 29.036 19.0068 29.1714 18.9997 29.3954Z" fill="#02E602"/>
<path d="M21.9931 26.5001C22.0009 26.8474 21.8534 26.9947 21.5043 27C21.1552 27 21 26.8474 21 26.5053C21 26.4422 21 26.3738 21.0078 26.3106C21.0388 26.1159 21.2405 25.9949 21.5121 26.0002C21.7681 26.0054 21.9543 26.1212 21.9931 26.3054C22.0086 26.3685 21.9931 26.4317 21.9931 26.5001Z" fill="#02E602"/>
<path d="M23 29.3818C23.0071 29.1528 23.1417 29.0435 23.3755 29.0071C23.6022 28.9759 23.7864 29.0487 23.8644 29.2049C23.9352 29.3506 23.9848 29.5015 23.999 29.6577C24.0132 29.8346 23.8785 29.9543 23.6447 29.9907C23.418 30.0272 23.2338 29.9543 23.1488 29.8034C23.0638 29.6577 23.0354 29.4963 23 29.3818Z" fill="#02E602"/>
<path d="M18.0009 26.6034C18.0362 26.4937 18.0644 26.3526 18.1208 26.222C18.1983 26.0495 18.4309 25.9659 18.6706 26.013C18.882 26.0548 19.03 26.2167 18.9948 26.3892C18.9666 26.5146 18.9314 26.6452 18.875 26.7654C18.8045 26.9378 18.593 27.0214 18.3604 26.9953C18.1349 26.9587 17.9868 26.8124 18.0009 26.6034Z" fill="#02E602"/>
<path d="M24 26.6157C23.9929 26.8301 23.8797 26.9451 23.6604 26.9869C23.4269 27.0288 23.2288 26.9712 23.1439 26.7987C23.0732 26.6523 23.0166 26.5007 23.0024 26.349C22.9812 26.1817 23.1015 26.0562 23.3279 26.0144C23.5543 25.9725 23.7594 26.0196 23.8514 26.1869C23.9293 26.3333 23.9646 26.4954 24 26.6157Z" fill="#02E602"/>
<path d="M22.0003 24.3628C21.9932 24.1804 22.1345 24.0449 22.3536 24.0085C22.5657 23.972 22.7918 24.0554 22.8625 24.2169C22.9261 24.3576 22.9685 24.5034 22.9968 24.6545C23.0251 24.8213 22.8625 24.9619 22.6434 24.9932C22.4243 25.0245 22.2052 24.9463 22.1275 24.79C22.078 24.691 22.0568 24.5868 22.0215 24.4878C22.0144 24.4461 22.0073 24.3992 22.0003 24.3628Z" fill="#02E602"/>
<path d="M19.9997 24.4036C19.9642 24.5084 19.9357 24.6552 19.8645 24.7967C19.7933 24.954 19.5656 25.0274 19.345 24.9907C19.1315 24.954 18.9749 24.8125 19.0033 24.6447C19.0247 24.5032 19.0674 24.3616 19.1315 24.2253C19.2097 24.0524 19.3948 23.979 19.6297 24.0052C19.8645 24.0261 20.0069 24.1729 19.9997 24.4036Z" fill="#02E602"/>
<path d="M21.5039 16.0002C21.7873 16.0002 22.0077 16.2285 21.9998 16.5118C21.9919 16.7794 21.7715 16.9998 21.5118 16.9998C21.2363 17.0077 21.0002 16.7794 21.0002 16.4961C20.9923 16.2206 21.2206 15.9923 21.5039 16.0002Z" fill="#02E602"/>
</svg>
