<svg width="40" height="40" viewBox="0 0 40 40" fill="none" xmlns="http://www.w3.org/2000/svg">
<circle cx="20" cy="20" r="19" fill="#1E1F20" fill-opacity="0.95" stroke="white" stroke-width="2"/>
<path d="M13.9375 15.5769C13.9375 15.4035 14.0066 15.2372 14.1297 15.1146C14.2528 14.992 14.4197 14.9231 14.5938 14.9231H23.7812C23.9553 14.9231 24.1222 14.992 24.2453 15.1146C24.3684 15.2372 24.4375 15.4035 24.4375 15.5769C24.4375 15.7503 24.3684 15.9166 24.2453 16.0393C24.1222 16.1619 23.9553 16.2308 23.7812 16.2308H14.5938C14.4197 16.2308 14.2528 16.1619 14.1297 16.0393C14.0066 15.9166 13.9375 15.7503 13.9375 15.5769ZM21.1562 18.8462C20.9822 18.8462 20.8153 18.915 20.6922 19.0377C20.5691 19.1603 20.5 19.3266 20.5 19.5C20.5 19.6734 20.5691 19.8397 20.6922 19.9623C20.8153 20.085 20.9822 20.1538 21.1562 20.1538H23.7812C23.9553 20.1538 24.1222 20.085 24.2453 19.9623C24.3684 19.8397 24.4375 19.6734 24.4375 19.5C24.4375 19.3266 24.3684 19.1603 24.2453 19.0377C24.1222 18.915 23.9553 18.8462 23.7812 18.8462H21.1562ZM20.5 23.4231C20.5 23.2497 20.5691 23.0834 20.6922 22.9607C20.8153 22.8381 20.9822 22.7692 21.1562 22.7692H23.7812C23.9553 22.7692 24.1222 22.8381 24.2453 22.9607C24.3684 23.0834 24.4375 23.2497 24.4375 23.4231C24.4375 23.5965 24.3684 23.7628 24.2453 23.8854C24.1222 24.008 23.9553 24.0769 23.7812 24.0769H21.1562C20.9822 24.0769 20.8153 24.008 20.6922 23.8854C20.5691 23.7628 20.5 23.5965 20.5 23.4231ZM14.5938 18.8462C14.4197 18.8462 14.2528 18.915 14.1297 19.0377C14.0066 19.1603 13.9375 19.3266 13.9375 19.5V23.4231C13.9375 23.5965 14.0066 23.7628 14.1297 23.8854C14.2528 24.008 14.4197 24.0769 14.5938 24.0769H18.5312C18.7053 24.0769 18.8722 24.008 18.9953 23.8854C19.1184 23.7628 19.1875 23.5965 19.1875 23.4231V19.5C19.1875 19.3266 19.1184 19.1603 18.9953 19.0377C18.8722 18.915 18.7053 18.8462 18.5312 18.8462H14.5938ZM15.25 22.7692V20.1538H17.875V22.7692H15.25ZM10 13.6154C10 12.9217 10.2766 12.2565 10.7688 11.766C11.2611 11.2755 11.9288 11 12.625 11H25.75C26.4462 11 27.1139 11.2755 27.6062 11.766C28.0984 12.2565 28.375 12.9217 28.375 13.6154V14.9231C29.0712 14.9231 29.7389 15.1986 30.2312 15.6891C30.7234 16.1796 31 16.8448 31 17.5385V24.7308C31 25.5978 30.6543 26.4294 30.0389 27.0425C29.4236 27.6556 28.589 28 27.7188 28H13.2812C12.411 28 11.5764 27.6556 10.9611 27.0425C10.3457 26.4294 10 25.5978 10 24.7308V13.6154ZM27.0625 13.6154C27.0625 13.2686 26.9242 12.9359 26.6781 12.6907C26.4319 12.4455 26.0981 12.3077 25.75 12.3077H12.625C12.2769 12.3077 11.9431 12.4455 11.6969 12.6907C11.4508 12.9359 11.3125 13.2686 11.3125 13.6154V24.7308C11.3125 25.251 11.5199 25.7499 11.8891 26.1178C12.2583 26.4856 12.7591 26.6923 13.2812 26.6923H27.7188C28.2409 26.6923 28.7417 26.4856 29.1109 26.1178C29.4801 25.7499 29.6875 25.251 29.6875 24.7308V17.5385C29.6875 17.1916 29.5492 16.859 29.3031 16.6138C29.0569 16.3685 28.7231 16.2308 28.375 16.2308V24.7308C28.375 24.9042 28.3059 25.0705 28.1828 25.1931C28.0597 25.3157 27.8928 25.3846 27.7188 25.3846C27.5447 25.3846 27.3778 25.3157 27.2547 25.1931C27.1316 25.0705 27.0625 24.9042 27.0625 24.7308V13.6154Z" fill="#02E502"/>
</svg>
