<svg width="40" height="40" viewBox="0 0 40 40" fill="none" xmlns="http://www.w3.org/2000/svg">
<circle cx="20" cy="20" r="19" fill="#1E1F20" fill-opacity="0.95" stroke="white" stroke-width="2"/>
<path d="M11.9526 30.9865C11.8074 30.8832 11.6666 30.7754 11.649 30.5778C11.6314 30.3353 11.7722 30.1916 11.9702 30.0928C12.3706 29.8906 12.7622 29.6751 13.167 29.4864C13.343 29.4056 13.409 29.3113 13.4046 29.1047C13.3914 28.0402 13.4002 26.9803 13.3958 25.9158C13.3958 25.6913 13.4662 25.5161 13.6246 25.3589C14.0998 24.8828 14.5706 24.3978 15.0414 23.9172C15.1074 23.8498 15.1646 23.787 15.1646 23.6702C15.1602 23.0998 15.191 22.5339 15.2878 21.9725C15.3186 21.8063 15.3054 21.7165 15.0942 21.7299C14.7378 21.7524 14.3374 21.6491 14.0294 21.7748C13.7302 21.9006 13.519 22.2509 13.2682 22.5069C12.7182 23.0683 12.1638 23.6253 11.6182 24.1912C11.4598 24.3574 11.2838 24.4382 11.055 24.4337C10.549 24.4247 10.043 24.4337 9.53705 24.4292C9.20706 24.4292 8.99146 24.2451 9.00026 23.9711C9.00906 23.7061 9.21146 23.5354 9.53265 23.531C9.95945 23.531 10.3818 23.5265 10.8086 23.5354C10.9494 23.5399 11.0506 23.4995 11.1518 23.3917C11.8954 22.6237 12.6478 21.8692 13.387 21.1012C13.5718 20.9125 13.7654 20.8227 14.0294 20.8317C14.4694 20.8451 14.9094 20.8362 15.3494 20.8362C15.4154 20.8362 15.499 20.8676 15.5254 20.7598C15.6882 20.1715 15.917 19.61 16.1986 19.0576C16.159 19.0486 16.137 19.0396 16.1194 19.0441C15.5826 19.1429 15.2086 18.8914 14.861 18.4962C14.4782 18.0516 14.0514 17.6473 13.6378 17.2386C13.4618 17.0635 13.387 16.8703 13.3914 16.6188C13.4002 15.9002 13.3914 15.1816 13.3958 14.463C13.3958 14.3417 13.3694 14.2519 13.277 14.1711C13.0746 13.9779 12.8766 13.7758 12.6874 13.5692C12.4718 13.3357 12.4586 13.0842 12.6478 12.891C12.837 12.6979 13.0834 12.7114 13.3078 12.936C13.5718 13.1964 13.827 13.4659 14.0866 13.7264C14.2186 13.8612 14.2758 14.0184 14.2714 14.2115C14.267 14.9525 14.2714 15.6936 14.267 16.4347C14.267 16.5559 14.2978 16.6413 14.3814 16.7311C14.8126 17.1623 15.235 17.5934 15.6574 18.0336C15.7366 18.1144 15.8114 18.1504 15.9258 18.1504C16.8057 18.1549 16.8057 18.1549 17.3821 17.4812C17.4393 17.4138 17.4437 17.3779 17.3777 17.3195C16.6253 16.6413 16.8057 15.6622 17.7429 15.1053C17.9893 14.957 18.2533 14.8403 18.5305 14.7684C18.6229 14.7459 18.6757 14.71 18.6757 14.5932C18.6625 13.8387 18.7021 13.0842 18.5481 12.3341C18.2797 11.0586 17.6549 10.0121 16.6781 9.17223C16.5681 9.07791 16.4449 8.99258 16.3306 8.89826C15.9302 8.58387 15.9346 8.29194 16.3437 8C16.4185 8 16.4889 8 16.5637 8C16.6385 8.04042 16.7177 8.07635 16.7837 8.12576C17.8925 8.90724 18.6845 9.94474 19.1597 11.2337C19.5029 12.1679 19.5777 13.1336 19.5557 14.1217C19.5469 14.5618 19.5557 14.5618 19.9737 14.5573C20.0397 14.5573 20.1057 14.5483 20.1717 14.5618C20.3961 14.6112 20.4445 14.5169 20.4401 14.2968C20.4181 13.4839 20.4269 12.6665 20.6337 11.8715C21.0649 10.2232 21.9845 8.93419 23.3836 8C23.4584 8 23.5288 8 23.6036 8C24.048 8.22007 24.0876 8.57938 23.674 8.88479C23.0492 9.34739 22.5257 9.89982 22.1209 10.5735C21.5797 11.4763 21.3333 12.4644 21.3157 13.5153C21.3113 13.8612 21.3201 14.2025 21.3113 14.5483C21.3069 14.6876 21.3553 14.7415 21.4785 14.7774C21.9581 14.9166 22.3937 15.1322 22.7325 15.5185C23.1988 16.0484 23.1856 16.7491 22.6797 17.2431C22.5433 17.3734 22.5345 17.4497 22.6841 17.562C22.7677 17.6249 22.8513 17.6967 22.8997 17.7821C23.0844 18.1054 23.3616 18.1593 23.7092 18.1638C24.0788 18.1683 24.3384 18.065 24.5804 17.7821C24.884 17.4273 25.2228 17.1039 25.5572 16.7805C25.6804 16.6592 25.72 16.538 25.72 16.3718C25.7112 15.6622 25.72 14.9481 25.7156 14.2384C25.7112 14.0184 25.7816 13.8477 25.9356 13.6995C26.1996 13.439 26.446 13.165 26.7188 12.909C26.9872 12.6575 27.3524 12.7518 27.458 13.0887C27.5196 13.2863 27.436 13.439 27.3084 13.5737C27.1148 13.7803 26.9212 13.9824 26.7188 14.1756C26.6308 14.2609 26.6044 14.3507 26.6044 14.472C26.6088 15.1996 26.6 15.9227 26.6088 16.6503C26.6132 16.8838 26.5384 17.0635 26.3756 17.2296C25.8784 17.7282 25.3812 18.2267 24.9016 18.7387C24.686 18.9678 24.4572 19.089 24.1448 19.0531C24.0392 19.0396 23.9292 19.0531 23.7928 19.0531C24.0832 19.619 24.312 20.1849 24.4748 20.7733C24.5056 20.8811 24.5848 20.8496 24.6508 20.8496C25.104 20.8496 25.5616 20.8586 26.0148 20.8496C26.2436 20.8451 26.4196 20.9215 26.5824 21.0877C27.3216 21.8467 28.0652 22.6012 28.8 23.3648C28.9364 23.504 29.0684 23.5624 29.2576 23.5534C29.6623 23.5399 30.0627 23.5489 30.4675 23.5489C30.7887 23.5489 30.9955 23.7241 30.9999 23.9891C31.0043 24.263 30.7931 24.4472 30.4631 24.4472C29.9483 24.4472 29.438 24.4427 28.9232 24.4517C28.7076 24.4562 28.5448 24.3753 28.3952 24.2226C27.634 23.4411 26.8684 22.6686 26.1116 21.8871C26.0148 21.7883 25.9224 21.7479 25.786 21.7524C25.4692 21.7614 25.1568 21.7614 24.84 21.7524C24.7212 21.7479 24.6904 21.7793 24.708 21.9006C24.8004 22.5069 24.8444 23.1178 24.84 23.7331C24.84 23.8319 24.906 23.8768 24.9632 23.9307C25.4296 24.4068 25.8916 24.8873 26.3624 25.3589C26.5296 25.5251 26.6088 25.7137 26.6044 25.9563C26.5956 27.0207 26.6044 28.0806 26.5956 29.1451C26.5956 29.3292 26.6528 29.4191 26.8156 29.4909C27.2204 29.684 27.612 29.8996 28.0124 30.0972C28.2104 30.1961 28.3644 30.3263 28.3556 30.5688C28.3468 30.7934 28.206 30.9281 28.008 31C27.9332 31 27.8628 31 27.788 31C27.2292 30.7126 26.6748 30.4116 26.1116 30.1377C25.8344 30.0029 25.7112 29.8143 25.7156 29.4909C25.7288 28.3861 25.72 27.2767 25.72 26.1718C25.72 26.1 25.7508 26.0146 25.6936 25.9563C25.39 25.6419 25.0776 25.332 24.752 24.9951C24.7344 25.0849 24.7212 25.1343 24.7124 25.1838C24.5276 26.3964 24.1668 27.5507 23.5288 28.5971C22.9304 29.5852 22.1781 30.3982 21.0781 30.8069C20.8581 30.8877 20.6249 30.9371 20.3961 31C20.1013 31 19.8109 31 19.5161 31C19.4897 30.9236 19.4193 30.9416 19.3665 30.9281C18.4293 30.7305 17.6989 30.1916 17.0873 29.464C16.2162 28.431 15.719 27.2138 15.4198 25.9024C15.3538 25.6104 15.3054 25.314 15.2394 24.9861C14.9402 25.296 14.6674 25.579 14.3902 25.853C14.3022 25.9383 14.2714 26.0281 14.2758 26.1449C14.2802 27.2677 14.2714 28.3906 14.2802 29.5134C14.2846 29.8053 14.1746 29.985 13.9194 30.1107C13.343 30.3937 12.7798 30.6991 12.2078 30.9955C12.1286 30.9865 12.0406 30.9865 11.9526 30.9865ZM20.4445 30.0478C20.5941 30.0029 20.7217 29.9715 20.8449 29.9221C21.7161 29.5807 22.3233 28.925 22.7721 28.1301C24.048 25.8709 24.2592 23.4681 23.6168 20.9619C23.5904 20.8631 23.5508 20.8317 23.454 20.8317C22.4949 20.8362 21.5313 20.8362 20.5721 20.8317C20.4797 20.8317 20.4401 20.8541 20.4489 20.9574C20.4577 21.0832 20.4577 21.2134 20.4401 21.3392C20.4093 21.5727 20.2157 21.7389 20.0001 21.7299C19.7933 21.7254 19.6129 21.5638 19.5777 21.3437C19.5601 21.2359 19.5601 21.1191 19.5689 21.0068C19.5821 20.8721 19.5469 20.8317 19.4061 20.8317C18.4689 20.8407 17.5273 20.8407 16.5901 20.8317C16.4581 20.8317 16.4229 20.8811 16.3877 21.0023C15.9434 22.6327 15.9346 24.263 16.3394 25.9024C16.6341 27.106 17.1225 28.2154 17.9893 29.1181C18.4249 29.5718 18.9309 29.9131 19.5689 30.0389C19.5689 29.9401 19.5689 29.8547 19.5689 29.7739C19.5689 28.1929 19.5689 26.6165 19.5689 25.0355C19.5689 24.9457 19.5689 24.8559 19.5909 24.7706C19.6393 24.5684 19.8109 24.4337 20.0045 24.4337C20.1981 24.4337 20.3741 24.5684 20.4225 24.7661C20.4445 24.8604 20.4445 24.9592 20.4445 25.0535C20.4445 26.7063 20.4445 28.3636 20.4445 30.0478ZM23.2384 19.9334C22.8865 19.1429 22.4377 18.4648 21.7953 17.9303C21.7117 17.8629 21.6457 17.8764 21.5533 17.9033C20.5237 18.2177 19.4897 18.2222 18.4601 17.9033C18.3457 17.8674 18.2753 17.8809 18.1829 17.9572C17.8705 18.2222 17.5977 18.5231 17.3645 18.86C17.1357 19.1923 16.9245 19.5382 16.7793 19.9334C18.9353 19.9334 21.0693 19.9334 23.2384 19.9334ZM20.0001 15.4601C19.8901 15.4601 19.7801 15.4511 19.6701 15.4601C19.0893 15.5185 18.5217 15.6128 18.0421 15.9856C17.7341 16.2236 17.7385 16.4482 18.0333 16.6907C18.3237 16.9332 18.6713 17.0545 19.0321 17.1308C19.9737 17.324 20.8977 17.2925 21.7689 16.8344C21.9713 16.7311 22.1957 16.5964 22.1913 16.3359C22.1869 16.0799 21.9581 15.9541 21.7601 15.8418C21.2101 15.5409 20.6117 15.4601 20.0001 15.4601Z" fill="#02E602"/>
<path d="M20.9999 23.4923C21.0049 23.7535 20.7788 23.9896 20.5175 23.9997C20.2462 24.0097 20 23.7686 20 23.4973C20 23.2361 20.2362 23 20.4974 23C20.7537 23 20.9899 23.2311 20.9999 23.4923Z" fill="#02E602"/>
</svg>
