<svg width="33" height="33" viewBox="0 0 33 33" fill="none" xmlns="http://www.w3.org/2000/svg">
<path d="M16.879 8.01434C17.8205 8 18.7566 8.0085 19.6917 8C19.7483 9.08434 20.1444 10.1889 20.9504 10.9555C21.7549 11.7413 22.8928 12.1009 24 12.2226V15.075C22.9624 15.0416 21.92 14.8291 20.9785 14.3892C20.5684 14.2064 20.1864 13.971 19.8125 13.7304C19.8077 15.8002 19.8212 17.8674 19.799 19.9288C19.7429 20.9191 19.4111 21.9046 18.8262 22.7207C17.8852 24.0791 16.252 24.9648 14.5746 24.9924C13.5456 25.0503 12.5178 24.774 11.641 24.2651C10.188 23.4214 9.16554 21.877 9.01662 20.2194C8.99786 19.8683 8.99498 19.5166 9.00799 19.1653C9.13748 17.8175 9.81462 16.5281 10.8657 15.6509C12.057 14.6293 13.7258 14.1426 15.2884 14.4306C15.3029 15.4799 15.2603 16.5281 15.2603 17.5774C14.5465 17.35 13.7123 17.4137 13.0886 17.8403C12.6323 18.1363 12.2874 18.5719 12.1072 19.0798C11.9583 19.439 12.0009 19.8379 12.0095 20.2194C12.1806 21.3818 13.3158 22.3589 14.5276 22.2531C15.331 22.2446 16.1009 21.7856 16.5196 21.1135C16.6551 20.8782 16.8067 20.6375 16.8148 20.3607C16.8855 19.0936 16.8574 17.8318 16.866 16.5647C16.872 13.7091 16.8574 10.8615 16.8795 8.01488L16.879 8.01434Z" fill="white"/>
<circle cx="16.5" cy="16.5" r="15.5" stroke="#01B601" stroke-width="2"/>
</svg>
